<?xml version="1.0" encoding="utf-8" standalone="no"?>
<!DOCTYPE svg PUBLIC "-//W3C//DTD SVG 1.1//EN"
  "http://www.w3.org/Graphics/SVG/1.1/DTD/svg11.dtd">
<svg xmlns:xlink="http://www.w3.org/1999/xlink" width="1002.14pt" height="297.8575pt" viewBox="0 0 1002.14 297.8575" xmlns="http://www.w3.org/2000/svg" version="1.1">
 <metadata>
  <rdf:RDF xmlns:dc="http://purl.org/dc/elements/1.1/" xmlns:cc="http://creativecommons.org/ns#" xmlns:rdf="http://www.w3.org/1999/02/22-rdf-syntax-ns#">
   <cc:Work>
    <dc:type rdf:resource="http://purl.org/dc/dcmitype/StillImage"/>
    <dc:date>2023-02-09T19:25:24.943414</dc:date>
    <dc:format>image/svg+xml</dc:format>
    <dc:creator>
     <cc:Agent>
      <dc:title>Matplotlib v3.5.2, https://matplotlib.org/</dc:title>
     </cc:Agent>
    </dc:creator>
   </cc:Work>
  </rdf:RDF>
 </metadata>
 <defs>
  <style type="text/css">*{stroke-linejoin: round; stroke-linecap: butt}</style>
 </defs>
 <g id="figure_1">
  <g id="patch_1">
   <path d="M 0 297.8575 
L 1002.14 297.8575 
L 1002.14 0 
L 0 0 
z
" style="fill: #ffffff"/>
  </g>
  <g id="axes_1">
   <g id="patch_2">
    <path d="M 102.14 228.96 
L 994.94 228.96 
L 994.94 7.2 
L 102.14 7.2 
z
" style="fill: #ffffff"/>
   </g>
   <g id="patch_3">
    <path d="M 142.721818 88067.911101 
L 149.227921 88067.911101 
L 149.227921 17.28 
L 142.721818 17.28 
z
" clip-path="url(#p0e037f16b0)" style="fill: #da70d6"/>
   </g>
   <g id="patch_4">
    <path d="M 150.854447 88067.911101 
L 157.36055 88067.911101 
L 157.36055 211.20287 
L 150.854447 211.20287 
z
" clip-path="url(#p0e037f16b0)" style="fill: #da70d6"/>
   </g>
   <g id="patch_5">
    <path d="M 158.987076 88067.911101 
L 165.493179 88067.911101 
L 165.493179 211.20287 
L 158.987076 211.20287 
z
" clip-path="url(#p0e037f16b0)" style="fill: #da70d6"/>
   </g>
   <g id="patch_6">
    <path d="M 167.119705 88067.911101 
L 173.625808 88067.911101 
L 173.625808 211.20287 
L 167.119705 211.20287 
z
" clip-path="url(#p0e037f16b0)" style="fill: #da70d6"/>
   </g>
   <g id="patch_7">
    <path d="M 175.252334 88067.911101 
L 181.758437 88067.911101 
L 181.758437 211.20287 
L 175.252334 211.20287 
z
" clip-path="url(#p0e037f16b0)" style="fill: #da70d6"/>
   </g>
   <g id="patch_8">
    <path d="M 183.384963 88067.911101 
L 189.891066 88067.911101 
L 189.891066 211.20287 
L 183.384963 211.20287 
z
" clip-path="url(#p0e037f16b0)" style="fill: #da70d6"/>
   </g>
   <g id="patch_9">
    <path d="M 191.517592 88067.911101 
L 198.023695 88067.911101 
L 198.023695 211.20287 
L 191.517592 211.20287 
z
" clip-path="url(#p0e037f16b0)" style="fill: #da70d6"/>
   </g>
   <g id="patch_10">
    <path d="M 199.65022 88067.911101 
L 206.156324 88067.911101 
L 206.156324 211.20287 
L 199.65022 211.20287 
z
" clip-path="url(#p0e037f16b0)" style="fill: #da70d6"/>
   </g>
   <g id="patch_11">
    <path d="M 207.782849 88067.911101 
L 214.288952 88067.911101 
L 214.288952 211.20287 
L 207.782849 211.20287 
z
" clip-path="url(#p0e037f16b0)" style="fill: #da70d6"/>
   </g>
   <g id="patch_12">
    <path d="M 215.915478 88067.911101 
L 222.421581 88067.911101 
L 222.421581 211.20287 
L 215.915478 211.20287 
z
" clip-path="url(#p0e037f16b0)" style="fill: #da70d6"/>
   </g>
   <g id="patch_13">
    <path d="M 224.048107 88067.911101 
L 230.55421 88067.911101 
L 230.55421 211.20287 
L 224.048107 211.20287 
z
" clip-path="url(#p0e037f16b0)" style="fill: #da70d6"/>
   </g>
   <g id="patch_14">
    <path d="M 232.180736 88067.911101 
L 238.686839 88067.911101 
L 238.686839 211.20287 
L 232.180736 211.20287 
z
" clip-path="url(#p0e037f16b0)" style="fill: #da70d6"/>
   </g>
   <g id="patch_15">
    <path d="M 240.313365 88067.911101 
L 246.819468 88067.911101 
L 246.819468 211.20287 
L 240.313365 211.20287 
z
" clip-path="url(#p0e037f16b0)" style="fill: #da70d6"/>
   </g>
   <g id="patch_16">
    <path d="M 248.445994 88067.911101 
L 254.952097 88067.911101 
L 254.952097 211.20287 
L 248.445994 211.20287 
z
" clip-path="url(#p0e037f16b0)" style="fill: #da70d6"/>
   </g>
   <g id="patch_17">
    <path d="M 256.578623 88067.911101 
L 263.084726 88067.911101 
L 263.084726 211.20287 
L 256.578623 211.20287 
z
" clip-path="url(#p0e037f16b0)" style="fill: #da70d6"/>
   </g>
   <g id="patch_18">
    <path d="M 264.711252 88067.911101 
L 271.217355 88067.911101 
L 271.217355 211.20287 
L 264.711252 211.20287 
z
" clip-path="url(#p0e037f16b0)" style="fill: #da70d6"/>
   </g>
   <g id="patch_19">
    <path d="M 272.84388 88067.911101 
L 279.349984 88067.911101 
L 279.349984 84.221641 
L 272.84388 84.221641 
z
" clip-path="url(#p0e037f16b0)" style="fill: #da70d6"/>
   </g>
   <g id="patch_20">
    <path d="M 280.976509 88067.911101 
L 287.482612 88067.911101 
L 287.482612 209.502263 
L 280.976509 209.502263 
z
" clip-path="url(#p0e037f16b0)" style="fill: #da70d6"/>
   </g>
   <g id="patch_21">
    <path d="M 289.109138 88067.911101 
L 295.615241 88067.911101 
L 295.615241 209.502263 
L 289.109138 209.502263 
z
" clip-path="url(#p0e037f16b0)" style="fill: #da70d6"/>
   </g>
   <g id="patch_22">
    <path d="M 297.241767 88067.911101 
L 303.74787 88067.911101 
L 303.74787 209.502263 
L 297.241767 209.502263 
z
" clip-path="url(#p0e037f16b0)" style="fill: #da70d6"/>
   </g>
   <g id="patch_23">
    <path d="M 305.374396 88067.911101 
L 311.880499 88067.911101 
L 311.880499 209.502263 
L 305.374396 209.502263 
z
" clip-path="url(#p0e037f16b0)" style="fill: #da70d6"/>
   </g>
   <g id="patch_24">
    <path d="M 313.507025 88067.911101 
L 320.013128 88067.911101 
L 320.013128 209.502263 
L 313.507025 209.502263 
z
" clip-path="url(#p0e037f16b0)" style="fill: #da70d6"/>
   </g>
   <g id="patch_25">
    <path d="M 321.639654 88067.911101 
L 328.145757 88067.911101 
L 328.145757 209.502263 
L 321.639654 209.502263 
z
" clip-path="url(#p0e037f16b0)" style="fill: #da70d6"/>
   </g>
   <g id="patch_26">
    <path d="M 329.772283 88067.911101 
L 336.278386 88067.911101 
L 336.278386 209.502263 
L 329.772283 209.502263 
z
" clip-path="url(#p0e037f16b0)" style="fill: #da70d6"/>
   </g>
   <g id="patch_27">
    <path d="M 337.904912 88067.911101 
L 344.411015 88067.911101 
L 344.411015 209.502263 
L 337.904912 209.502263 
z
" clip-path="url(#p0e037f16b0)" style="fill: #da70d6"/>
   </g>
   <g id="patch_28">
    <path d="M 346.037541 88067.911101 
L 352.543644 88067.911101 
L 352.543644 209.502263 
L 346.037541 209.502263 
z
" clip-path="url(#p0e037f16b0)" style="fill: #da70d6"/>
   </g>
   <g id="patch_29">
    <path d="M 354.170169 88067.911101 
L 360.676273 88067.911101 
L 360.676273 209.502263 
L 354.170169 209.502263 
z
" clip-path="url(#p0e037f16b0)" style="fill: #da70d6"/>
   </g>
   <g id="patch_30">
    <path d="M 362.302798 88067.911101 
L 368.808901 88067.911101 
L 368.808901 209.502263 
L 362.302798 209.502263 
z
" clip-path="url(#p0e037f16b0)" style="fill: #da70d6"/>
   </g>
   <g id="patch_31">
    <path d="M 370.435427 88067.911101 
L 376.94153 88067.911101 
L 376.94153 209.502263 
L 370.435427 209.502263 
z
" clip-path="url(#p0e037f16b0)" style="fill: #da70d6"/>
   </g>
   <g id="patch_32">
    <path d="M 378.568056 88067.911101 
L 385.074159 88067.911101 
L 385.074159 209.502263 
L 378.568056 209.502263 
z
" clip-path="url(#p0e037f16b0)" style="fill: #da70d6"/>
   </g>
   <g id="patch_33">
    <path d="M 386.700685 88067.911101 
L 393.206788 88067.911101 
L 393.206788 209.502263 
L 386.700685 209.502263 
z
" clip-path="url(#p0e037f16b0)" style="fill: #da70d6"/>
   </g>
   <g id="patch_34">
    <path d="M 394.833314 88067.911101 
L 401.339417 88067.911101 
L 401.339417 209.502263 
L 394.833314 209.502263 
z
" clip-path="url(#p0e037f16b0)" style="fill: #da70d6"/>
   </g>
   <g id="patch_35">
    <path d="M 402.965943 88067.911101 
L 409.472046 88067.911101 
L 409.472046 124.169928 
L 402.965943 124.169928 
z
" clip-path="url(#p0e037f16b0)" style="fill: #da70d6"/>
   </g>
   <g id="patch_36">
    <path d="M 411.098572 88067.911101 
L 417.604675 88067.911101 
L 417.604675 212.982603 
L 411.098572 212.982603 
z
" clip-path="url(#p0e037f16b0)" style="fill: #da70d6"/>
   </g>
   <g id="patch_37">
    <path d="M 419.231201 88067.911101 
L 425.737304 88067.911101 
L 425.737304 212.982603 
L 419.231201 212.982603 
z
" clip-path="url(#p0e037f16b0)" style="fill: #da70d6"/>
   </g>
   <g id="patch_38">
    <path d="M 427.363829 88067.911101 
L 433.869933 88067.911101 
L 433.869933 212.982603 
L 427.363829 212.982603 
z
" clip-path="url(#p0e037f16b0)" style="fill: #da70d6"/>
   </g>
   <g id="patch_39">
    <path d="M 435.496458 88067.911101 
L 442.002561 88067.911101 
L 442.002561 212.982603 
L 435.496458 212.982603 
z
" clip-path="url(#p0e037f16b0)" style="fill: #da70d6"/>
   </g>
   <g id="patch_40">
    <path d="M 443.629087 88067.911101 
L 450.13519 88067.911101 
L 450.13519 212.982603 
L 443.629087 212.982603 
z
" clip-path="url(#p0e037f16b0)" style="fill: #da70d6"/>
   </g>
   <g id="patch_41">
    <path d="M 451.761716 88067.911101 
L 458.267819 88067.911101 
L 458.267819 212.982603 
L 451.761716 212.982603 
z
" clip-path="url(#p0e037f16b0)" style="fill: #da70d6"/>
   </g>
   <g id="patch_42">
    <path d="M 459.894345 88067.911101 
L 466.400448 88067.911101 
L 466.400448 212.982603 
L 459.894345 212.982603 
z
" clip-path="url(#p0e037f16b0)" style="fill: #da70d6"/>
   </g>
   <g id="patch_43">
    <path d="M 468.026974 88067.911101 
L 474.533077 88067.911101 
L 474.533077 212.982603 
L 468.026974 212.982603 
z
" clip-path="url(#p0e037f16b0)" style="fill: #da70d6"/>
   </g>
   <g id="patch_44">
    <path d="M 476.159603 88067.911101 
L 482.665706 88067.911101 
L 482.665706 212.982603 
L 476.159603 212.982603 
z
" clip-path="url(#p0e037f16b0)" style="fill: #da70d6"/>
   </g>
   <g id="patch_45">
    <path d="M 484.292232 88067.911101 
L 490.798335 88067.911101 
L 490.798335 212.982603 
L 484.292232 212.982603 
z
" clip-path="url(#p0e037f16b0)" style="fill: #da70d6"/>
   </g>
   <g id="patch_46">
    <path d="M 492.424861 88067.911101 
L 498.930964 88067.911101 
L 498.930964 212.982603 
L 492.424861 212.982603 
z
" clip-path="url(#p0e037f16b0)" style="fill: #da70d6"/>
   </g>
   <g id="patch_47">
    <path d="M 500.55749 88067.911101 
L 507.063593 88067.911101 
L 507.063593 212.982603 
L 500.55749 212.982603 
z
" clip-path="url(#p0e037f16b0)" style="fill: #da70d6"/>
   </g>
   <g id="patch_48">
    <path d="M 508.690118 88067.911101 
L 515.196222 88067.911101 
L 515.196222 212.982603 
L 508.690118 212.982603 
z
" clip-path="url(#p0e037f16b0)" style="fill: #da70d6"/>
   </g>
   <g id="patch_49">
    <path d="M 516.822747 88067.911101 
L 523.32885 88067.911101 
L 523.32885 212.982603 
L 516.822747 212.982603 
z
" clip-path="url(#p0e037f16b0)" style="fill: #da70d6"/>
   </g>
   <g id="patch_50">
    <path d="M 524.955376 88067.911101 
L 531.461479 88067.911101 
L 531.461479 212.982603 
L 524.955376 212.982603 
z
" clip-path="url(#p0e037f16b0)" style="fill: #da70d6"/>
   </g>
   <g id="patch_51">
    <path d="M 533.088005 88067.911101 
L 539.594108 88067.911101 
L 539.594108 121.913739 
L 533.088005 121.913739 
z
" clip-path="url(#p0e037f16b0)" style="fill: #da70d6"/>
   </g>
   <g id="patch_52">
    <path d="M 541.220634 88067.911101 
L 547.726737 88067.911101 
L 547.726737 216.811531 
L 541.220634 216.811531 
z
" clip-path="url(#p0e037f16b0)" style="fill: #da70d6"/>
   </g>
   <g id="patch_53">
    <path d="M 549.353263 88067.911101 
L 555.859366 88067.911101 
L 555.859366 216.811531 
L 549.353263 216.811531 
z
" clip-path="url(#p0e037f16b0)" style="fill: #da70d6"/>
   </g>
   <g id="patch_54">
    <path d="M 557.485892 88067.911101 
L 563.991995 88067.911101 
L 563.991995 216.811531 
L 557.485892 216.811531 
z
" clip-path="url(#p0e037f16b0)" style="fill: #da70d6"/>
   </g>
   <g id="patch_55">
    <path d="M 565.618521 88067.911101 
L 572.124624 88067.911101 
L 572.124624 216.811531 
L 565.618521 216.811531 
z
" clip-path="url(#p0e037f16b0)" style="fill: #da70d6"/>
   </g>
   <g id="patch_56">
    <path d="M 573.75115 88067.911101 
L 580.257253 88067.911101 
L 580.257253 216.811531 
L 573.75115 216.811531 
z
" clip-path="url(#p0e037f16b0)" style="fill: #da70d6"/>
   </g>
   <g id="patch_57">
    <path d="M 581.883778 88067.911101 
L 588.389882 88067.911101 
L 588.389882 216.811531 
L 581.883778 216.811531 
z
" clip-path="url(#p0e037f16b0)" style="fill: #da70d6"/>
   </g>
   <g id="patch_58">
    <path d="M 590.016407 88067.911101 
L 596.52251 88067.911101 
L 596.52251 216.811531 
L 590.016407 216.811531 
z
" clip-path="url(#p0e037f16b0)" style="fill: #da70d6"/>
   </g>
   <g id="patch_59">
    <path d="M 598.149036 88067.911101 
L 604.655139 88067.911101 
L 604.655139 216.811531 
L 598.149036 216.811531 
z
" clip-path="url(#p0e037f16b0)" style="fill: #da70d6"/>
   </g>
   <g id="patch_60">
    <path d="M 606.281665 88067.911101 
L 612.787768 88067.911101 
L 612.787768 216.811531 
L 606.281665 216.811531 
z
" clip-path="url(#p0e037f16b0)" style="fill: #da70d6"/>
   </g>
   <g id="patch_61">
    <path d="M 614.414294 88067.911101 
L 620.920397 88067.911101 
L 620.920397 216.811531 
L 614.414294 216.811531 
z
" clip-path="url(#p0e037f16b0)" style="fill: #da70d6"/>
   </g>
   <g id="patch_62">
    <path d="M 622.546923 88067.911101 
L 629.053026 88067.911101 
L 629.053026 216.811531 
L 622.546923 216.811531 
z
" clip-path="url(#p0e037f16b0)" style="fill: #da70d6"/>
   </g>
   <g id="patch_63">
    <path d="M 630.679552 88067.911101 
L 637.185655 88067.911101 
L 637.185655 216.811531 
L 630.679552 216.811531 
z
" clip-path="url(#p0e037f16b0)" style="fill: #da70d6"/>
   </g>
   <g id="patch_64">
    <path d="M 638.812181 88067.911101 
L 645.318284 88067.911101 
L 645.318284 216.811531 
L 638.812181 216.811531 
z
" clip-path="url(#p0e037f16b0)" style="fill: #da70d6"/>
   </g>
   <g id="patch_65">
    <path d="M 646.94481 88067.911101 
L 653.450913 88067.911101 
L 653.450913 216.811531 
L 646.94481 216.811531 
z
" clip-path="url(#p0e037f16b0)" style="fill: #da70d6"/>
   </g>
   <g id="patch_66">
    <path d="M 655.077439 88067.911101 
L 661.583542 88067.911101 
L 661.583542 216.811531 
L 655.077439 216.811531 
z
" clip-path="url(#p0e037f16b0)" style="fill: #da70d6"/>
   </g>
   <g id="patch_67">
    <path d="M 663.210067 88067.911101 
L 669.716171 88067.911101 
L 669.716171 127.726961 
L 663.210067 127.726961 
z
" clip-path="url(#p0e037f16b0)" style="fill: #da70d6"/>
   </g>
   <g id="patch_68">
    <path d="M 671.342696 88067.911101 
L 677.848799 88067.911101 
L 677.848799 218.88 
L 671.342696 218.88 
z
" clip-path="url(#p0e037f16b0)" style="fill: #da70d6"/>
   </g>
   <g id="patch_69">
    <path d="M 679.475325 88067.911101 
L 685.981428 88067.911101 
L 685.981428 218.88 
L 679.475325 218.88 
z
" clip-path="url(#p0e037f16b0)" style="fill: #da70d6"/>
   </g>
   <g id="patch_70">
    <path d="M 687.607954 88067.911101 
L 694.114057 88067.911101 
L 694.114057 218.88 
L 687.607954 218.88 
z
" clip-path="url(#p0e037f16b0)" style="fill: #da70d6"/>
   </g>
   <g id="patch_71">
    <path d="M 695.740583 88067.911101 
L 702.246686 88067.911101 
L 702.246686 218.88 
L 695.740583 218.88 
z
" clip-path="url(#p0e037f16b0)" style="fill: #da70d6"/>
   </g>
   <g id="patch_72">
    <path d="M 703.873212 88067.911101 
L 710.379315 88067.911101 
L 710.379315 218.88 
L 703.873212 218.88 
z
" clip-path="url(#p0e037f16b0)" style="fill: #da70d6"/>
   </g>
   <g id="patch_73">
    <path d="M 712.005841 88067.911101 
L 718.511944 88067.911101 
L 718.511944 218.88 
L 712.005841 218.88 
z
" clip-path="url(#p0e037f16b0)" style="fill: #da70d6"/>
   </g>
   <g id="patch_74">
    <path d="M 720.13847 88067.911101 
L 726.644573 88067.911101 
L 726.644573 218.88 
L 720.13847 218.88 
z
" clip-path="url(#p0e037f16b0)" style="fill: #da70d6"/>
   </g>
   <g id="patch_75">
    <path d="M 728.271099 88067.911101 
L 734.777202 88067.911101 
L 734.777202 218.88 
L 728.271099 218.88 
z
" clip-path="url(#p0e037f16b0)" style="fill: #da70d6"/>
   </g>
   <g id="patch_76">
    <path d="M 736.403727 88067.911101 
L 742.909831 88067.911101 
L 742.909831 218.88 
L 736.403727 218.88 
z
" clip-path="url(#p0e037f16b0)" style="fill: #da70d6"/>
   </g>
   <g id="patch_77">
    <path d="M 744.536356 88067.911101 
L 751.042459 88067.911101 
L 751.042459 218.88 
L 744.536356 218.88 
z
" clip-path="url(#p0e037f16b0)" style="fill: #da70d6"/>
   </g>
   <g id="patch_78">
    <path d="M 752.668985 88067.911101 
L 759.175088 88067.911101 
L 759.175088 218.88 
L 752.668985 218.88 
z
" clip-path="url(#p0e037f16b0)" style="fill: #da70d6"/>
   </g>
   <g id="patch_79">
    <path d="M 760.801614 88067.911101 
L 767.307717 88067.911101 
L 767.307717 218.88 
L 760.801614 218.88 
z
" clip-path="url(#p0e037f16b0)" style="fill: #da70d6"/>
   </g>
   <g id="patch_80">
    <path d="M 768.934243 88067.911101 
L 775.440346 88067.911101 
L 775.440346 218.88 
L 768.934243 218.88 
z
" clip-path="url(#p0e037f16b0)" style="fill: #da70d6"/>
   </g>
   <g id="patch_81">
    <path d="M 777.066872 88067.911101 
L 783.572975 88067.911101 
L 783.572975 218.88 
L 777.066872 218.88 
z
" clip-path="url(#p0e037f16b0)" style="fill: #da70d6"/>
   </g>
   <g id="patch_82">
    <path d="M 785.199501 88067.911101 
L 791.705604 88067.911101 
L 791.705604 218.88 
L 785.199501 218.88 
z
" clip-path="url(#p0e037f16b0)" style="fill: #da70d6"/>
   </g>
   <g id="patch_83">
    <path d="M 793.33213 88067.911101 
L 799.838233 88067.911101 
L 799.838233 141.232521 
L 793.33213 141.232521 
z
" clip-path="url(#p0e037f16b0)" style="fill: #da70d6"/>
   </g>
   <g id="patch_84">
    <path d="M 801.464759 88067.911101 
L 807.970862 88067.911101 
L 807.970862 216.811531 
L 801.464759 216.811531 
z
" clip-path="url(#p0e037f16b0)" style="fill: #da70d6"/>
   </g>
   <g id="patch_85">
    <path d="M 809.597388 88067.911101 
L 816.103491 88067.911101 
L 816.103491 216.811531 
L 809.597388 216.811531 
z
" clip-path="url(#p0e037f16b0)" style="fill: #da70d6"/>
   </g>
   <g id="patch_86">
    <path d="M 817.730016 88067.911101 
L 824.23612 88067.911101 
L 824.23612 216.811531 
L 817.730016 216.811531 
z
" clip-path="url(#p0e037f16b0)" style="fill: #da70d6"/>
   </g>
   <g id="patch_87">
    <path d="M 825.862645 88067.911101 
L 832.368748 88067.911101 
L 832.368748 216.811531 
L 825.862645 216.811531 
z
" clip-path="url(#p0e037f16b0)" style="fill: #da70d6"/>
   </g>
   <g id="patch_88">
    <path d="M 833.995274 88067.911101 
L 840.501377 88067.911101 
L 840.501377 216.811531 
L 833.995274 216.811531 
z
" clip-path="url(#p0e037f16b0)" style="fill: #da70d6"/>
   </g>
   <g id="patch_89">
    <path d="M 842.127903 88067.911101 
L 848.634006 88067.911101 
L 848.634006 216.811531 
L 842.127903 216.811531 
z
" clip-path="url(#p0e037f16b0)" style="fill: #da70d6"/>
   </g>
   <g id="patch_90">
    <path d="M 850.260532 88067.911101 
L 856.766635 88067.911101 
L 856.766635 216.811531 
L 850.260532 216.811531 
z
" clip-path="url(#p0e037f16b0)" style="fill: #da70d6"/>
   </g>
   <g id="patch_91">
    <path d="M 858.393161 88067.911101 
L 864.899264 88067.911101 
L 864.899264 216.811531 
L 858.393161 216.811531 
z
" clip-path="url(#p0e037f16b0)" style="fill: #da70d6"/>
   </g>
   <g id="patch_92">
    <path d="M 866.52579 88067.911101 
L 873.031893 88067.911101 
L 873.031893 216.811531 
L 866.52579 216.811531 
z
" clip-path="url(#p0e037f16b0)" style="fill: #da70d6"/>
   </g>
   <g id="patch_93">
    <path d="M 874.658419 88067.911101 
L 881.164522 88067.911101 
L 881.164522 216.811531 
L 874.658419 216.811531 
z
" clip-path="url(#p0e037f16b0)" style="fill: #da70d6"/>
   </g>
   <g id="patch_94">
    <path d="M 882.791048 88067.911101 
L 889.297151 88067.911101 
L 889.297151 216.811531 
L 882.791048 216.811531 
z
" clip-path="url(#p0e037f16b0)" style="fill: #da70d6"/>
   </g>
   <g id="patch_95">
    <path d="M 890.923676 88067.911101 
L 897.42978 88067.911101 
L 897.42978 216.811531 
L 890.923676 216.811531 
z
" clip-path="url(#p0e037f16b0)" style="fill: #da70d6"/>
   </g>
   <g id="patch_96">
    <path d="M 899.056305 88067.911101 
L 905.562408 88067.911101 
L 905.562408 216.811531 
L 899.056305 216.811531 
z
" clip-path="url(#p0e037f16b0)" style="fill: #da70d6"/>
   </g>
   <g id="patch_97">
    <path d="M 907.188934 88067.911101 
L 913.695037 88067.911101 
L 913.695037 216.811531 
L 907.188934 216.811531 
z
" clip-path="url(#p0e037f16b0)" style="fill: #da70d6"/>
   </g>
   <g id="patch_98">
    <path d="M 915.321563 88067.911101 
L 921.827666 88067.911101 
L 921.827666 216.811531 
L 915.321563 216.811531 
z
" clip-path="url(#p0e037f16b0)" style="fill: #da70d6"/>
   </g>
   <g id="patch_99">
    <path d="M 923.454192 88067.911101 
L 929.960295 88067.911101 
L 929.960295 151.047133 
L 923.454192 151.047133 
z
" clip-path="url(#p0e037f16b0)" style="fill: #da70d6"/>
   </g>
   <g id="patch_100">
    <path d="M 931.586821 88067.911101 
L 938.092924 88067.911101 
L 938.092924 218.88 
L 931.586821 218.88 
z
" clip-path="url(#p0e037f16b0)" style="fill: #da70d6"/>
   </g>
   <g id="patch_101">
    <path d="M 939.71945 88067.911101 
L 946.225553 88067.911101 
L 946.225553 218.88 
L 939.71945 218.88 
z
" clip-path="url(#p0e037f16b0)" style="fill: #da70d6"/>
   </g>
   <g id="patch_102">
    <path d="M 947.852079 88067.911101 
L 954.358182 88067.911101 
L 954.358182 218.88 
L 947.852079 218.88 
z
" clip-path="url(#p0e037f16b0)" style="fill: #da70d6"/>
   </g>
   <g id="matplotlib.axis_1">
    <g id="xtick_1">
     <g id="line2d_1">
      <defs>
       <path id="mcaf6c1475f" d="M 0 0 
L 0 -3.5 
" style="stroke: #000000; stroke-width: 0.8"/>
      </defs>
      <g>
       <use xlink:href="#mcaf6c1475f" x="137.842241" y="228.96" style="stroke: #000000; stroke-width: 0.8"/>
      </g>
     </g>
     <g id="line2d_2">
      <defs>
       <path id="m96d5ceb049" d="M 0 0 
L 0 3.5 
" style="stroke: #000000; stroke-width: 0.8"/>
      </defs>
      <g>
       <use xlink:href="#m96d5ceb049" x="137.842241" y="7.2" style="stroke: #000000; stroke-width: 0.8"/>
      </g>
     </g>
     <g id="text_1">
      <!-- 0 -->
      <g transform="translate(130.207241 250.69625)scale(0.24 -0.24)">
       <defs>
        <path id="DejaVuSans-30" d="M 2034 4250 
Q 1547 4250 1301 3770 
Q 1056 3291 1056 2328 
Q 1056 1369 1301 889 
Q 1547 409 2034 409 
Q 2525 409 2770 889 
Q 3016 1369 3016 2328 
Q 3016 3291 2770 3770 
Q 2525 4250 2034 4250 
z
M 2034 4750 
Q 2819 4750 3233 4129 
Q 3647 3509 3647 2328 
Q 3647 1150 3233 529 
Q 2819 -91 2034 -91 
Q 1250 -91 836 529 
Q 422 1150 422 2328 
Q 422 3509 836 4129 
Q 1250 4750 2034 4750 
z
" transform="scale(0.015625)"/>
       </defs>
       <use xlink:href="#DejaVuSans-30"/>
      </g>
     </g>
    </g>
    <g id="xtick_2">
     <g id="line2d_3">
      <g>
       <use xlink:href="#mcaf6c1475f" x="300.494819" y="228.96" style="stroke: #000000; stroke-width: 0.8"/>
      </g>
     </g>
     <g id="line2d_4">
      <g>
       <use xlink:href="#m96d5ceb049" x="300.494819" y="7.2" style="stroke: #000000; stroke-width: 0.8"/>
      </g>
     </g>
     <g id="text_2">
      <!-- 20 -->
      <g transform="translate(285.224819 250.69625)scale(0.24 -0.24)">
       <defs>
        <path id="DejaVuSans-32" d="M 1228 531 
L 3431 531 
L 3431 0 
L 469 0 
L 469 531 
Q 828 903 1448 1529 
Q 2069 2156 2228 2338 
Q 2531 2678 2651 2914 
Q 2772 3150 2772 3378 
Q 2772 3750 2511 3984 
Q 2250 4219 1831 4219 
Q 1534 4219 1204 4116 
Q 875 4013 500 3803 
L 500 4441 
Q 881 4594 1212 4672 
Q 1544 4750 1819 4750 
Q 2544 4750 2975 4387 
Q 3406 4025 3406 3419 
Q 3406 3131 3298 2873 
Q 3191 2616 2906 2266 
Q 2828 2175 2409 1742 
Q 1991 1309 1228 531 
z
" transform="scale(0.015625)"/>
       </defs>
       <use xlink:href="#DejaVuSans-32"/>
       <use xlink:href="#DejaVuSans-30" x="63.623047"/>
      </g>
     </g>
    </g>
    <g id="xtick_3">
     <g id="line2d_5">
      <g>
       <use xlink:href="#mcaf6c1475f" x="463.147397" y="228.96" style="stroke: #000000; stroke-width: 0.8"/>
      </g>
     </g>
     <g id="line2d_6">
      <g>
       <use xlink:href="#m96d5ceb049" x="463.147397" y="7.2" style="stroke: #000000; stroke-width: 0.8"/>
      </g>
     </g>
     <g id="text_3">
      <!-- 40 -->
      <g transform="translate(447.877397 250.69625)scale(0.24 -0.24)">
       <defs>
        <path id="DejaVuSans-34" d="M 2419 4116 
L 825 1625 
L 2419 1625 
L 2419 4116 
z
M 2253 4666 
L 3047 4666 
L 3047 1625 
L 3713 1625 
L 3713 1100 
L 3047 1100 
L 3047 0 
L 2419 0 
L 2419 1100 
L 313 1100 
L 313 1709 
L 2253 4666 
z
" transform="scale(0.015625)"/>
       </defs>
       <use xlink:href="#DejaVuSans-34"/>
       <use xlink:href="#DejaVuSans-30" x="63.623047"/>
      </g>
     </g>
    </g>
    <g id="xtick_4">
     <g id="line2d_7">
      <g>
       <use xlink:href="#mcaf6c1475f" x="625.799974" y="228.96" style="stroke: #000000; stroke-width: 0.8"/>
      </g>
     </g>
     <g id="line2d_8">
      <g>
       <use xlink:href="#m96d5ceb049" x="625.799974" y="7.2" style="stroke: #000000; stroke-width: 0.8"/>
      </g>
     </g>
     <g id="text_4">
      <!-- 60 -->
      <g transform="translate(610.529974 250.69625)scale(0.24 -0.24)">
       <defs>
        <path id="DejaVuSans-36" d="M 2113 2584 
Q 1688 2584 1439 2293 
Q 1191 2003 1191 1497 
Q 1191 994 1439 701 
Q 1688 409 2113 409 
Q 2538 409 2786 701 
Q 3034 994 3034 1497 
Q 3034 2003 2786 2293 
Q 2538 2584 2113 2584 
z
M 3366 4563 
L 3366 3988 
Q 3128 4100 2886 4159 
Q 2644 4219 2406 4219 
Q 1781 4219 1451 3797 
Q 1122 3375 1075 2522 
Q 1259 2794 1537 2939 
Q 1816 3084 2150 3084 
Q 2853 3084 3261 2657 
Q 3669 2231 3669 1497 
Q 3669 778 3244 343 
Q 2819 -91 2113 -91 
Q 1303 -91 875 529 
Q 447 1150 447 2328 
Q 447 3434 972 4092 
Q 1497 4750 2381 4750 
Q 2619 4750 2861 4703 
Q 3103 4656 3366 4563 
z
" transform="scale(0.015625)"/>
       </defs>
       <use xlink:href="#DejaVuSans-36"/>
       <use xlink:href="#DejaVuSans-30" x="63.623047"/>
      </g>
     </g>
    </g>
    <g id="xtick_5">
     <g id="line2d_9">
      <g>
       <use xlink:href="#mcaf6c1475f" x="788.452552" y="228.96" style="stroke: #000000; stroke-width: 0.8"/>
      </g>
     </g>
     <g id="line2d_10">
      <g>
       <use xlink:href="#m96d5ceb049" x="788.452552" y="7.2" style="stroke: #000000; stroke-width: 0.8"/>
      </g>
     </g>
     <g id="text_5">
      <!-- 80 -->
      <g transform="translate(773.182552 250.69625)scale(0.24 -0.24)">
       <defs>
        <path id="DejaVuSans-38" d="M 2034 2216 
Q 1584 2216 1326 1975 
Q 1069 1734 1069 1313 
Q 1069 891 1326 650 
Q 1584 409 2034 409 
Q 2484 409 2743 651 
Q 3003 894 3003 1313 
Q 3003 1734 2745 1975 
Q 2488 2216 2034 2216 
z
M 1403 2484 
Q 997 2584 770 2862 
Q 544 3141 544 3541 
Q 544 4100 942 4425 
Q 1341 4750 2034 4750 
Q 2731 4750 3128 4425 
Q 3525 4100 3525 3541 
Q 3525 3141 3298 2862 
Q 3072 2584 2669 2484 
Q 3125 2378 3379 2068 
Q 3634 1759 3634 1313 
Q 3634 634 3220 271 
Q 2806 -91 2034 -91 
Q 1263 -91 848 271 
Q 434 634 434 1313 
Q 434 1759 690 2068 
Q 947 2378 1403 2484 
z
M 1172 3481 
Q 1172 3119 1398 2916 
Q 1625 2713 2034 2713 
Q 2441 2713 2670 2916 
Q 2900 3119 2900 3481 
Q 2900 3844 2670 4047 
Q 2441 4250 2034 4250 
Q 1625 4250 1398 4047 
Q 1172 3844 1172 3481 
z
" transform="scale(0.015625)"/>
       </defs>
       <use xlink:href="#DejaVuSans-38"/>
       <use xlink:href="#DejaVuSans-30" x="63.623047"/>
      </g>
     </g>
    </g>
    <g id="xtick_6">
     <g id="line2d_11">
      <g>
       <use xlink:href="#mcaf6c1475f" x="951.10513" y="228.96" style="stroke: #000000; stroke-width: 0.8"/>
      </g>
     </g>
     <g id="line2d_12">
      <g>
       <use xlink:href="#m96d5ceb049" x="951.10513" y="7.2" style="stroke: #000000; stroke-width: 0.8"/>
      </g>
     </g>
     <g id="text_6">
      <!-- 100 -->
      <g transform="translate(928.20013 250.69625)scale(0.24 -0.24)">
       <defs>
        <path id="DejaVuSans-31" d="M 794 531 
L 1825 531 
L 1825 4091 
L 703 3866 
L 703 4441 
L 1819 4666 
L 2450 4666 
L 2450 531 
L 3481 531 
L 3481 0 
L 794 0 
L 794 531 
z
" transform="scale(0.015625)"/>
       </defs>
       <use xlink:href="#DejaVuSans-31"/>
       <use xlink:href="#DejaVuSans-30" x="63.623047"/>
       <use xlink:href="#DejaVuSans-30" x="127.246094"/>
      </g>
     </g>
    </g>
    <g id="text_7">
     <!-- $Solution\ Index$ -->
     <g transform="translate(433.82 284.0025)scale(0.32 -0.32)">
      <defs>
       <path id="DejaVuSans-Oblique-53" d="M 3859 4513 
L 3738 3897 
Q 3422 4066 3111 4152 
Q 2800 4238 2509 4238 
Q 1944 4238 1609 3991 
Q 1275 3744 1275 3334 
Q 1275 3109 1398 2989 
Q 1522 2869 2034 2731 
L 2413 2638 
Q 3053 2472 3303 2217 
Q 3553 1963 3553 1503 
Q 3553 797 2998 353 
Q 2444 -91 1538 -91 
Q 1166 -91 791 -17 
Q 416 56 38 206 
L 166 856 
Q 513 641 861 531 
Q 1209 422 1556 422 
Q 2147 422 2503 684 
Q 2859 947 2859 1369 
Q 2859 1650 2717 1795 
Q 2575 1941 2106 2059 
L 1728 2156 
Q 1081 2325 845 2545 
Q 609 2766 609 3163 
Q 609 3859 1145 4304 
Q 1681 4750 2541 4750 
Q 2875 4750 3203 4690 
Q 3531 4631 3859 4513 
z
" transform="scale(0.015625)"/>
       <path id="DejaVuSans-Oblique-6f" d="M 1625 -91 
Q 1009 -91 651 289 
Q 294 669 294 1325 
Q 294 1706 417 2101 
Q 541 2497 738 2766 
Q 1047 3184 1428 3384 
Q 1809 3584 2291 3584 
Q 2888 3584 3255 3212 
Q 3622 2841 3622 2241 
Q 3622 1825 3500 1412 
Q 3378 1000 3181 728 
Q 2875 309 2494 109 
Q 2113 -91 1625 -91 
z
M 891 1344 
Q 891 869 1089 633 
Q 1288 397 1691 397 
Q 2269 397 2648 901 
Q 3028 1406 3028 2181 
Q 3028 2634 2825 2865 
Q 2622 3097 2228 3097 
Q 1903 3097 1650 2945 
Q 1397 2794 1197 2484 
Q 1050 2253 970 1956 
Q 891 1659 891 1344 
z
" transform="scale(0.015625)"/>
       <path id="DejaVuSans-Oblique-6c" d="M 1172 4863 
L 1747 4863 
L 800 0 
L 225 0 
L 1172 4863 
z
" transform="scale(0.015625)"/>
       <path id="DejaVuSans-Oblique-75" d="M 428 1388 
L 838 3500 
L 1416 3500 
L 1006 1409 
Q 975 1256 961 1147 
Q 947 1038 947 966 
Q 947 700 1109 554 
Q 1272 409 1569 409 
Q 2031 409 2368 721 
Q 2706 1034 2809 1563 
L 3194 3500 
L 3769 3500 
L 3091 0 
L 2516 0 
L 2631 550 
Q 2388 244 2052 76 
Q 1716 -91 1338 -91 
Q 878 -91 622 161 
Q 366 413 366 863 
Q 366 956 381 1097 
Q 397 1238 428 1388 
z
" transform="scale(0.015625)"/>
       <path id="DejaVuSans-Oblique-74" d="M 2706 3500 
L 2619 3053 
L 1472 3053 
L 1100 1153 
Q 1081 1047 1072 975 
Q 1063 903 1063 863 
Q 1063 663 1183 572 
Q 1303 481 1569 481 
L 2150 481 
L 2053 0 
L 1503 0 
Q 991 0 739 200 
Q 488 400 488 806 
Q 488 878 497 964 
Q 506 1050 525 1153 
L 897 3053 
L 409 3053 
L 500 3500 
L 978 3500 
L 1172 4494 
L 1747 4494 
L 1556 3500 
L 2706 3500 
z
" transform="scale(0.015625)"/>
       <path id="DejaVuSans-Oblique-69" d="M 1172 4863 
L 1747 4863 
L 1606 4134 
L 1031 4134 
L 1172 4863 
z
M 909 3500 
L 1484 3500 
L 800 0 
L 225 0 
L 909 3500 
z
" transform="scale(0.015625)"/>
       <path id="DejaVuSans-Oblique-6e" d="M 3566 2113 
L 3156 0 
L 2578 0 
L 2988 2091 
Q 3016 2238 3031 2350 
Q 3047 2463 3047 2528 
Q 3047 2791 2881 2937 
Q 2716 3084 2419 3084 
Q 1956 3084 1622 2776 
Q 1288 2469 1184 1941 
L 800 0 
L 225 0 
L 903 3500 
L 1478 3500 
L 1363 2950 
Q 1603 3253 1940 3418 
Q 2278 3584 2650 3584 
Q 3113 3584 3367 3334 
Q 3622 3084 3622 2631 
Q 3622 2519 3608 2391 
Q 3594 2263 3566 2113 
z
" transform="scale(0.015625)"/>
       <path id="DejaVuSans-Oblique-49" d="M 1081 4666 
L 1716 4666 
L 806 0 
L 172 0 
L 1081 4666 
z
" transform="scale(0.015625)"/>
       <path id="DejaVuSans-Oblique-64" d="M 2675 525 
Q 2444 222 2128 65 
Q 1813 -91 1428 -91 
Q 903 -91 598 267 
Q 294 625 294 1247 
Q 294 1766 478 2236 
Q 663 2706 1013 3078 
Q 1244 3325 1534 3454 
Q 1825 3584 2144 3584 
Q 2481 3584 2739 3421 
Q 2997 3259 3138 2956 
L 3513 4863 
L 4091 4863 
L 3144 0 
L 2566 0 
L 2675 525 
z
M 891 1350 
Q 891 897 1095 644 
Q 1300 391 1663 391 
Q 1931 391 2161 520 
Q 2391 650 2566 903 
Q 2750 1166 2856 1509 
Q 2963 1853 2963 2188 
Q 2963 2622 2758 2865 
Q 2553 3109 2194 3109 
Q 1922 3109 1687 2981 
Q 1453 2853 1288 2613 
Q 1106 2353 998 2009 
Q 891 1666 891 1350 
z
" transform="scale(0.015625)"/>
       <path id="DejaVuSans-Oblique-65" d="M 3078 2063 
Q 3088 2113 3092 2166 
Q 3097 2219 3097 2272 
Q 3097 2653 2873 2875 
Q 2650 3097 2266 3097 
Q 1838 3097 1509 2826 
Q 1181 2556 1013 2059 
L 3078 2063 
z
M 3578 1613 
L 903 1613 
Q 884 1494 878 1425 
Q 872 1356 872 1306 
Q 872 872 1139 634 
Q 1406 397 1894 397 
Q 2269 397 2603 481 
Q 2938 566 3225 728 
L 3116 159 
Q 2806 34 2476 -28 
Q 2147 -91 1806 -91 
Q 1078 -91 686 257 
Q 294 606 294 1247 
Q 294 1794 489 2264 
Q 684 2734 1063 3103 
Q 1306 3334 1642 3459 
Q 1978 3584 2356 3584 
Q 2950 3584 3301 3228 
Q 3653 2872 3653 2272 
Q 3653 2128 3634 1964 
Q 3616 1800 3578 1613 
z
" transform="scale(0.015625)"/>
       <path id="DejaVuSans-Oblique-78" d="M 3841 3500 
L 2234 1784 
L 3219 0 
L 2559 0 
L 1819 1388 
L 531 0 
L -166 0 
L 1556 1844 
L 641 3500 
L 1300 3500 
L 1972 2234 
L 3144 3500 
L 3841 3500 
z
" transform="scale(0.015625)"/>
      </defs>
      <use xlink:href="#DejaVuSans-Oblique-53" transform="translate(0 0.015625)"/>
      <use xlink:href="#DejaVuSans-Oblique-6f" transform="translate(63.476562 0.015625)"/>
      <use xlink:href="#DejaVuSans-Oblique-6c" transform="translate(124.658203 0.015625)"/>
      <use xlink:href="#DejaVuSans-Oblique-75" transform="translate(152.441406 0.015625)"/>
      <use xlink:href="#DejaVuSans-Oblique-74" transform="translate(215.820312 0.015625)"/>
      <use xlink:href="#DejaVuSans-Oblique-69" transform="translate(255.029297 0.015625)"/>
      <use xlink:href="#DejaVuSans-Oblique-6f" transform="translate(282.8125 0.015625)"/>
      <use xlink:href="#DejaVuSans-Oblique-6e" transform="translate(343.994141 0.015625)"/>
      <use xlink:href="#DejaVuSans-Oblique-49" transform="translate(439.843425 0.015625)"/>
      <use xlink:href="#DejaVuSans-Oblique-6e" transform="translate(469.335613 0.015625)"/>
      <use xlink:href="#DejaVuSans-Oblique-64" transform="translate(532.714519 0.015625)"/>
      <use xlink:href="#DejaVuSans-Oblique-65" transform="translate(596.191082 0.015625)"/>
      <use xlink:href="#DejaVuSans-Oblique-78" transform="translate(657.714519 0.015625)"/>
     </g>
    </g>
   </g>
   <g id="matplotlib.axis_2">
    <g id="ytick_1">
     <g id="line2d_13">
      <defs>
       <path id="mae0c92d0a2" d="M 0 0 
L 3.5 0 
" style="stroke: #000000; stroke-width: 0.8"/>
      </defs>
      <g>
       <use xlink:href="#mae0c92d0a2" x="102.14" y="153.276347" style="stroke: #000000; stroke-width: 0.8"/>
      </g>
     </g>
     <g id="line2d_14">
      <defs>
       <path id="m7a4a58095e" d="M 0 0 
L -3.5 0 
" style="stroke: #000000; stroke-width: 0.8"/>
      </defs>
      <g>
       <use xlink:href="#m7a4a58095e" x="994.94" y="153.276347" style="stroke: #000000; stroke-width: 0.8"/>
      </g>
     </g>
     <g id="text_8">
      <!-- $\mathdefault{10^{-2}}$ -->
      <g transform="translate(42.24 162.394472)scale(0.24 -0.24)">
       <defs>
        <path id="DejaVuSans-2212" d="M 678 2272 
L 4684 2272 
L 4684 1741 
L 678 1741 
L 678 2272 
z
" transform="scale(0.015625)"/>
       </defs>
       <use xlink:href="#DejaVuSans-31" transform="translate(0 0.765625)"/>
       <use xlink:href="#DejaVuSans-30" transform="translate(63.623047 0.765625)"/>
       <use xlink:href="#DejaVuSans-2212" transform="translate(128.203125 39.046875)scale(0.7)"/>
       <use xlink:href="#DejaVuSans-32" transform="translate(186.855469 39.046875)scale(0.7)"/>
      </g>
     </g>
    </g>
    <g id="ytick_2">
     <g id="line2d_15">
      <g>
       <use xlink:href="#mae0c92d0a2" x="102.14" y="65.185531" style="stroke: #000000; stroke-width: 0.8"/>
      </g>
     </g>
     <g id="line2d_16">
      <g>
       <use xlink:href="#m7a4a58095e" x="994.94" y="65.185531" style="stroke: #000000; stroke-width: 0.8"/>
      </g>
     </g>
     <g id="text_9">
      <!-- $\mathdefault{10^{-1}}$ -->
      <g transform="translate(42.24 74.303656)scale(0.24 -0.24)">
       <use xlink:href="#DejaVuSans-31" transform="translate(0 0.684375)"/>
       <use xlink:href="#DejaVuSans-30" transform="translate(63.623047 0.684375)"/>
       <use xlink:href="#DejaVuSans-2212" transform="translate(128.203125 38.965625)scale(0.7)"/>
       <use xlink:href="#DejaVuSans-31" transform="translate(186.855469 38.965625)scale(0.7)"/>
      </g>
     </g>
    </g>
    <g id="ytick_3">
     <g id="line2d_17">
      <defs>
       <path id="m1c615fa487" d="M 0 0 
L -2 0 
" style="stroke: #000000; stroke-width: 0.6"/>
      </defs>
      <g>
       <use xlink:href="#m1c615fa487" x="102.14" y="214.849185" style="stroke: #000000; stroke-width: 0.6"/>
      </g>
     </g>
    </g>
    <g id="ytick_4">
     <g id="line2d_18">
      <g>
       <use xlink:href="#m1c615fa487" x="102.14" y="199.337163" style="stroke: #000000; stroke-width: 0.6"/>
      </g>
     </g>
    </g>
    <g id="ytick_5">
     <g id="line2d_19">
      <g>
       <use xlink:href="#m1c615fa487" x="102.14" y="188.331207" style="stroke: #000000; stroke-width: 0.6"/>
      </g>
     </g>
    </g>
    <g id="ytick_6">
     <g id="line2d_20">
      <g>
       <use xlink:href="#m1c615fa487" x="102.14" y="179.794325" style="stroke: #000000; stroke-width: 0.6"/>
      </g>
     </g>
    </g>
    <g id="ytick_7">
     <g id="line2d_21">
      <g>
       <use xlink:href="#m1c615fa487" x="102.14" y="172.819184" style="stroke: #000000; stroke-width: 0.6"/>
      </g>
     </g>
    </g>
    <g id="ytick_8">
     <g id="line2d_22">
      <g>
       <use xlink:href="#m1c615fa487" x="102.14" y="166.921787" style="stroke: #000000; stroke-width: 0.6"/>
      </g>
     </g>
    </g>
    <g id="ytick_9">
     <g id="line2d_23">
      <g>
       <use xlink:href="#m1c615fa487" x="102.14" y="161.813229" style="stroke: #000000; stroke-width: 0.6"/>
      </g>
     </g>
    </g>
    <g id="ytick_10">
     <g id="line2d_24">
      <g>
       <use xlink:href="#m1c615fa487" x="102.14" y="157.307162" style="stroke: #000000; stroke-width: 0.6"/>
      </g>
     </g>
    </g>
    <g id="ytick_11">
     <g id="line2d_25">
      <g>
       <use xlink:href="#m1c615fa487" x="102.14" y="126.758369" style="stroke: #000000; stroke-width: 0.6"/>
      </g>
     </g>
    </g>
    <g id="ytick_12">
     <g id="line2d_26">
      <g>
       <use xlink:href="#m1c615fa487" x="102.14" y="111.246346" style="stroke: #000000; stroke-width: 0.6"/>
      </g>
     </g>
    </g>
    <g id="ytick_13">
     <g id="line2d_27">
      <g>
       <use xlink:href="#m1c615fa487" x="102.14" y="100.240391" style="stroke: #000000; stroke-width: 0.6"/>
      </g>
     </g>
    </g>
    <g id="ytick_14">
     <g id="line2d_28">
      <g>
       <use xlink:href="#m1c615fa487" x="102.14" y="91.703509" style="stroke: #000000; stroke-width: 0.6"/>
      </g>
     </g>
    </g>
    <g id="ytick_15">
     <g id="line2d_29">
      <g>
       <use xlink:href="#m1c615fa487" x="102.14" y="84.728368" style="stroke: #000000; stroke-width: 0.6"/>
      </g>
     </g>
    </g>
    <g id="ytick_16">
     <g id="line2d_30">
      <g>
       <use xlink:href="#m1c615fa487" x="102.14" y="78.830971" style="stroke: #000000; stroke-width: 0.6"/>
      </g>
     </g>
    </g>
    <g id="ytick_17">
     <g id="line2d_31">
      <g>
       <use xlink:href="#m1c615fa487" x="102.14" y="73.722413" style="stroke: #000000; stroke-width: 0.6"/>
      </g>
     </g>
    </g>
    <g id="ytick_18">
     <g id="line2d_32">
      <g>
       <use xlink:href="#m1c615fa487" x="102.14" y="69.216345" style="stroke: #000000; stroke-width: 0.6"/>
      </g>
     </g>
    </g>
    <g id="ytick_19">
     <g id="line2d_33">
      <g>
       <use xlink:href="#m1c615fa487" x="102.14" y="38.667553" style="stroke: #000000; stroke-width: 0.6"/>
      </g>
     </g>
    </g>
    <g id="ytick_20">
     <g id="line2d_34">
      <g>
       <use xlink:href="#m1c615fa487" x="102.14" y="23.15553" style="stroke: #000000; stroke-width: 0.6"/>
      </g>
     </g>
    </g>
    <g id="ytick_21">
     <g id="line2d_35">
      <g>
       <use xlink:href="#m1c615fa487" x="102.14" y="12.149574" style="stroke: #000000; stroke-width: 0.6"/>
      </g>
     </g>
    </g>
    <g id="text_10">
     <!-- $Probability$ -->
     <g transform="translate(31.52 203.36)rotate(-90)scale(0.32 -0.32)">
      <defs>
       <path id="DejaVuSans-Oblique-50" d="M 1081 4666 
L 2541 4666 
Q 3178 4666 3512 4369 
Q 3847 4072 3847 3500 
Q 3847 2731 3353 2303 
Q 2859 1875 1966 1875 
L 1172 1875 
L 806 0 
L 172 0 
L 1081 4666 
z
M 1613 4147 
L 1275 2394 
L 2069 2394 
Q 2606 2394 2893 2669 
Q 3181 2944 3181 3456 
Q 3181 3784 2986 3965 
Q 2791 4147 2438 4147 
L 1613 4147 
z
" transform="scale(0.015625)"/>
       <path id="DejaVuSans-Oblique-72" d="M 2853 2969 
Q 2766 3016 2653 3041 
Q 2541 3066 2413 3066 
Q 1953 3066 1609 2717 
Q 1266 2369 1153 1784 
L 800 0 
L 225 0 
L 909 3500 
L 1484 3500 
L 1375 2956 
Q 1603 3259 1920 3421 
Q 2238 3584 2597 3584 
Q 2691 3584 2781 3573 
Q 2872 3563 2963 3538 
L 2853 2969 
z
" transform="scale(0.015625)"/>
       <path id="DejaVuSans-Oblique-62" d="M 3169 2138 
Q 3169 2591 2961 2847 
Q 2753 3103 2388 3103 
Q 2122 3103 1889 2973 
Q 1656 2844 1484 2597 
Q 1303 2338 1198 1995 
Q 1094 1653 1094 1313 
Q 1094 881 1298 636 
Q 1503 391 1863 391 
Q 2134 391 2365 517 
Q 2597 644 2772 891 
Q 2950 1147 3059 1487 
Q 3169 1828 3169 2138 
z
M 1381 2969 
Q 1594 3256 1914 3420 
Q 2234 3584 2584 3584 
Q 3122 3584 3439 3221 
Q 3756 2859 3756 2241 
Q 3756 1734 3570 1259 
Q 3384 784 3041 416 
Q 2816 172 2522 40 
Q 2228 -91 1906 -91 
Q 1566 -91 1316 65 
Q 1066 222 909 531 
L 806 0 
L 231 0 
L 1178 4863 
L 1753 4863 
L 1381 2969 
z
" transform="scale(0.015625)"/>
       <path id="DejaVuSans-Oblique-61" d="M 3438 1997 
L 3047 0 
L 2472 0 
L 2578 531 
Q 2325 219 2001 64 
Q 1678 -91 1281 -91 
Q 834 -91 548 182 
Q 263 456 263 884 
Q 263 1497 752 1853 
Q 1241 2209 2100 2209 
L 2900 2209 
L 2931 2363 
Q 2938 2388 2941 2417 
Q 2944 2447 2944 2509 
Q 2944 2788 2717 2942 
Q 2491 3097 2081 3097 
Q 1800 3097 1504 3025 
Q 1209 2953 897 2809 
L 997 3341 
Q 1322 3463 1633 3523 
Q 1944 3584 2234 3584 
Q 2853 3584 3176 3315 
Q 3500 3047 3500 2534 
Q 3500 2431 3484 2292 
Q 3469 2153 3438 1997 
z
M 2816 1759 
L 2241 1759 
Q 1534 1759 1195 1570 
Q 856 1381 856 984 
Q 856 709 1029 553 
Q 1203 397 1509 397 
Q 1978 397 2328 733 
Q 2678 1069 2791 1631 
L 2816 1759 
z
" transform="scale(0.015625)"/>
       <path id="DejaVuSans-Oblique-79" d="M 1588 -325 
Q 1188 -997 936 -1164 
Q 684 -1331 294 -1331 
L -159 -1331 
L -63 -850 
L 269 -850 
Q 509 -850 678 -719 
Q 847 -588 1056 -206 
L 1234 128 
L 459 3500 
L 1069 3500 
L 1650 819 
L 3256 3500 
L 3859 3500 
L 1588 -325 
z
" transform="scale(0.015625)"/>
      </defs>
      <use xlink:href="#DejaVuSans-Oblique-50" transform="translate(0 0.015625)"/>
      <use xlink:href="#DejaVuSans-Oblique-72" transform="translate(60.302734 0.015625)"/>
      <use xlink:href="#DejaVuSans-Oblique-6f" transform="translate(101.416016 0.015625)"/>
      <use xlink:href="#DejaVuSans-Oblique-62" transform="translate(162.597656 0.015625)"/>
      <use xlink:href="#DejaVuSans-Oblique-61" transform="translate(226.074219 0.015625)"/>
      <use xlink:href="#DejaVuSans-Oblique-62" transform="translate(287.353516 0.015625)"/>
      <use xlink:href="#DejaVuSans-Oblique-69" transform="translate(350.830078 0.015625)"/>
      <use xlink:href="#DejaVuSans-Oblique-6c" transform="translate(378.613281 0.015625)"/>
      <use xlink:href="#DejaVuSans-Oblique-69" transform="translate(406.396484 0.015625)"/>
      <use xlink:href="#DejaVuSans-Oblique-74" transform="translate(434.179688 0.015625)"/>
      <use xlink:href="#DejaVuSans-Oblique-79" transform="translate(473.388672 0.015625)"/>
     </g>
    </g>
   </g>
   <g id="patch_103">
    <path d="M 102.14 228.96 
L 102.14 7.2 
" style="fill: none; stroke: #000000; stroke-width: 0.8; stroke-linejoin: miter; stroke-linecap: square"/>
   </g>
   <g id="patch_104">
    <path d="M 994.94 228.96 
L 994.94 7.2 
" style="fill: none; stroke: #000000; stroke-width: 0.8; stroke-linejoin: miter; stroke-linecap: square"/>
   </g>
   <g id="patch_105">
    <path d="M 102.14 228.96 
L 994.94 228.96 
" style="fill: none; stroke: #000000; stroke-width: 0.8; stroke-linejoin: miter; stroke-linecap: square"/>
   </g>
   <g id="patch_106">
    <path d="M 102.14 7.2 
L 994.94 7.2 
" style="fill: none; stroke: #000000; stroke-width: 0.8; stroke-linejoin: miter; stroke-linecap: square"/>
   </g>
  </g>
 </g>
 <defs>
  <clipPath id="p0e037f16b0">
   <rect x="102.14" y="7.2" width="892.8" height="221.76"/>
  </clipPath>
 </defs>
</svg>
