<?xml version="1.0" encoding="utf-8" standalone="no"?>
<!DOCTYPE svg PUBLIC "-//W3C//DTD SVG 1.1//EN"
  "http://www.w3.org/Graphics/SVG/1.1/DTD/svg11.dtd">
<svg xmlns:xlink="http://www.w3.org/1999/xlink" width="1445.669375pt" height="1422.706843pt" viewBox="0 0 1445.669375 1422.706843" xmlns="http://www.w3.org/2000/svg" version="1.1">
 <metadata>
  <rdf:RDF xmlns:dc="http://purl.org/dc/elements/1.1/" xmlns:cc="http://creativecommons.org/ns#" xmlns:rdf="http://www.w3.org/1999/02/22-rdf-syntax-ns#">
   <cc:Work>
    <dc:type rdf:resource="http://purl.org/dc/dcmitype/StillImage"/>
    <dc:date>2023-02-09T19:43:45.240050</dc:date>
    <dc:format>image/svg+xml</dc:format>
    <dc:creator>
     <cc:Agent>
      <dc:title>Matplotlib v3.5.2, https://matplotlib.org/</dc:title>
     </cc:Agent>
    </dc:creator>
   </cc:Work>
  </rdf:RDF>
 </metadata>
 <defs>
  <style type="text/css">*{stroke-linejoin: round; stroke-linecap: butt}</style>
 </defs>
 <g id="figure_1">
  <g id="patch_1">
   <path d="M 0 1422.706843 
L 1445.669375 1422.706843 
L 1445.669375 0 
L 0 0 
z
" style="fill: #ffffff"/>
  </g>
  <g id="axes_1">
   <g id="patch_2">
    <path d="M 99.269375 1342.195593 
L 1438.469375 1342.195593 
L 1438.469375 11.635593 
L 99.269375 11.635593 
z
" style="fill: #ffffff"/>
   </g>
   <g id="PathCollection_1">
    <defs>
     <path id="m3585d5eae5" d="M -1.711412 -4.131715 
L -4.131715 -1.711412 
L -4.131715 1.711412 
L -1.711412 4.131715 
L 1.711412 4.131715 
L 4.131715 1.711412 
L 4.131715 -1.711412 
L 1.711412 -4.131715 
z
" style="stroke: #ff0000"/>
    </defs>
    <g clip-path="url(#pe239c73579)">
     <use xlink:href="#m3585d5eae5" x="172.439623" y="1184.359534" style="fill: #ff0000; stroke: #ff0000"/>
     <use xlink:href="#m3585d5eae5" x="197.034664" y="1060.552269" style="fill: #ff0000; stroke: #ff0000"/>
     <use xlink:href="#m3585d5eae5" x="221.629706" y="925.993935" style="fill: #ff0000; stroke: #ff0000"/>
     <use xlink:href="#m3585d5eae5" x="246.224747" y="778.446491" style="fill: #ff0000; stroke: #ff0000"/>
     <use xlink:href="#m3585d5eae5" x="270.819788" y="628.65165" style="fill: #ff0000; stroke: #ff0000"/>
     <use xlink:href="#m3585d5eae5" x="295.41483" y="484.819886" style="fill: #ff0000; stroke: #ff0000"/>
     <use xlink:href="#m3585d5eae5" x="320.009871" y="358.911652" style="fill: #ff0000; stroke: #ff0000"/>
     <use xlink:href="#m3585d5eae5" x="344.604912" y="257.581963" style="fill: #ff0000; stroke: #ff0000"/>
     <use xlink:href="#m3585d5eae5" x="369.199954" y="192.191108" style="fill: #ff0000; stroke: #ff0000"/>
     <use xlink:href="#m3585d5eae5" x="381.497474" y="173.757571" style="fill: #ff0000; stroke: #ff0000"/>
     <use xlink:href="#m3585d5eae5" x="393.794995" y="167.408289" style="fill: #ff0000; stroke: #ff0000"/>
     <use xlink:href="#m3585d5eae5" x="406.092515" y="174.109252" style="fill: #ff0000; stroke: #ff0000"/>
     <use xlink:href="#m3585d5eae5" x="418.390036" y="192.104646" style="fill: #ff0000; stroke: #ff0000"/>
     <use xlink:href="#m3585d5eae5" x="602.852846" y="171.005794" style="fill: #ff0000; stroke: #ff0000"/>
     <use xlink:href="#m3585d5eae5" x="615.150367" y="188.165351" style="fill: #ff0000; stroke: #ff0000"/>
     <use xlink:href="#m3585d5eae5" x="627.447887" y="213.635984" style="fill: #ff0000; stroke: #ff0000"/>
     <use xlink:href="#m3585d5eae5" x="664.340449" y="335.02326" style="fill: #ff0000; stroke: #ff0000"/>
     <use xlink:href="#m3585d5eae5" x="775.018135" y="204.947424" style="fill: #ff0000; stroke: #ff0000"/>
     <use xlink:href="#m3585d5eae5" x="811.910697" y="138.657434" style="fill: #ff0000; stroke: #ff0000"/>
     <use xlink:href="#m3585d5eae5" x="1082.456152" y="215.962526" style="fill: #ff0000; stroke: #ff0000"/>
     <use xlink:href="#m3585d5eae5" x="1143.943755" y="334.714715" style="fill: #ff0000; stroke: #ff0000"/>
     <use xlink:href="#m3585d5eae5" x="1242.32392" y="218.620319" style="fill: #ff0000; stroke: #ff0000"/>
     <use xlink:href="#m3585d5eae5" x="1254.621441" y="204.03124" style="fill: #ff0000; stroke: #ff0000"/>
     <use xlink:href="#m3585d5eae5" x="1266.918962" y="202.619649" style="fill: #ff0000; stroke: #ff0000"/>
     <use xlink:href="#m3585d5eae5" x="1279.216482" y="212.598575" style="fill: #ff0000; stroke: #ff0000"/>
     <use xlink:href="#m3585d5eae5" x="1291.514003" y="230.830192" style="fill: #ff0000; stroke: #ff0000"/>
     <use xlink:href="#m3585d5eae5" x="1303.811524" y="254.002914" style="fill: #ff0000; stroke: #ff0000"/>
     <use xlink:href="#m3585d5eae5" x="1316.109044" y="279.476454" style="fill: #ff0000; stroke: #ff0000"/>
     <use xlink:href="#m3585d5eae5" x="1340.704086" y="337.04851" style="fill: #ff0000; stroke: #ff0000"/>
     <use xlink:href="#m3585d5eae5" x="1353.001606" y="359.833209" style="fill: #ff0000; stroke: #ff0000"/>
     <use xlink:href="#m3585d5eae5" x="1365.299127" y="377.665964" style="fill: #ff0000; stroke: #ff0000"/>
     <use xlink:href="#m3585d5eae5" x="1377.596648" y="389.056006" style="fill: #ff0000; stroke: #ff0000"/>
    </g>
   </g>
   <g id="PathCollection_2">
    <defs>
     <path id="m335a41561e" d="M 0 -6.123724 
L -6.123724 6.123724 
L 6.123724 6.123724 
z
" style="stroke: #ff0000"/>
    </defs>
    <g clip-path="url(#pe239c73579)">
     <use xlink:href="#m335a41561e" x="160.142102" y="1225.908483" style="fill: #ff0000; stroke: #ff0000"/>
     <use xlink:href="#m335a41561e" x="184.737144" y="1115.143799" style="fill: #ff0000; stroke: #ff0000"/>
     <use xlink:href="#m335a41561e" x="209.332185" y="987.780285" style="fill: #ff0000; stroke: #ff0000"/>
     <use xlink:href="#m335a41561e" x="233.927226" y="848.345915" style="fill: #ff0000; stroke: #ff0000"/>
     <use xlink:href="#m335a41561e" x="258.522268" y="698.640556" style="fill: #ff0000; stroke: #ff0000"/>
     <use xlink:href="#m335a41561e" x="283.117309" y="552.905476" style="fill: #ff0000; stroke: #ff0000"/>
     <use xlink:href="#m335a41561e" x="307.71235" y="416.874655" style="fill: #ff0000; stroke: #ff0000"/>
     <use xlink:href="#m335a41561e" x="332.307392" y="304.286593" style="fill: #ff0000; stroke: #ff0000"/>
     <use xlink:href="#m335a41561e" x="356.902433" y="219.309524" style="fill: #ff0000; stroke: #ff0000"/>
     <use xlink:href="#m335a41561e" x="430.687557" y="230.980601" style="fill: #ff0000; stroke: #ff0000"/>
     <use xlink:href="#m335a41561e" x="442.985077" y="265.953794" style="fill: #ff0000; stroke: #ff0000"/>
     <use xlink:href="#m335a41561e" x="455.282598" y="292.999319" style="fill: #ff0000; stroke: #ff0000"/>
     <use xlink:href="#m335a41561e" x="467.580119" y="309.633622" style="fill: #ff0000; stroke: #ff0000"/>
     <use xlink:href="#m335a41561e" x="479.877639" y="314.940423" style="fill: #ff0000; stroke: #ff0000"/>
     <use xlink:href="#m335a41561e" x="492.17516" y="309.39939" style="fill: #ff0000; stroke: #ff0000"/>
     <use xlink:href="#m335a41561e" x="504.472681" y="294.672715" style="fill: #ff0000; stroke: #ff0000"/>
     <use xlink:href="#m335a41561e" x="516.770201" y="273.364976" style="fill: #ff0000; stroke: #ff0000"/>
     <use xlink:href="#m335a41561e" x="529.067722" y="248.682256" style="fill: #ff0000; stroke: #ff0000"/>
     <use xlink:href="#m335a41561e" x="541.365243" y="223.941436" style="fill: #ff0000; stroke: #ff0000"/>
     <use xlink:href="#m335a41561e" x="553.662763" y="202.009829" style="fill: #ff0000; stroke: #ff0000"/>
     <use xlink:href="#m335a41561e" x="565.960284" y="184.842371" style="fill: #ff0000; stroke: #ff0000"/>
     <use xlink:href="#m335a41561e" x="578.257805" y="173.275374" style="fill: #ff0000; stroke: #ff0000"/>
     <use xlink:href="#m335a41561e" x="590.555325" y="167.125453" style="fill: #ff0000; stroke: #ff0000"/>
     <use xlink:href="#m335a41561e" x="639.745408" y="257.869319" style="fill: #ff0000; stroke: #ff0000"/>
     <use xlink:href="#m335a41561e" x="652.042929" y="306.53432" style="fill: #ff0000; stroke: #ff0000"/>
     <use xlink:href="#m335a41561e" x="676.63797" y="358.113943" style="fill: #ff0000; stroke: #ff0000"/>
     <use xlink:href="#m335a41561e" x="688.935491" y="371.223899" style="fill: #ff0000; stroke: #ff0000"/>
     <use xlink:href="#m335a41561e" x="701.233011" y="372.513333" style="fill: #ff0000; stroke: #ff0000"/>
     <use xlink:href="#m335a41561e" x="713.530532" y="362.07735" style="fill: #ff0000; stroke: #ff0000"/>
     <use xlink:href="#m335a41561e" x="725.828053" y="341.277799" style="fill: #ff0000; stroke: #ff0000"/>
     <use xlink:href="#m335a41561e" x="738.125573" y="312.836231" style="fill: #ff0000; stroke: #ff0000"/>
     <use xlink:href="#m335a41561e" x="750.423094" y="281.282656" style="fill: #ff0000; stroke: #ff0000"/>
     <use xlink:href="#m335a41561e" x="762.720615" y="252.848436" style="fill: #ff0000; stroke: #ff0000"/>
     <use xlink:href="#m335a41561e" x="787.315656" y="177.662973" style="fill: #ff0000; stroke: #ff0000"/>
     <use xlink:href="#m335a41561e" x="799.613177" y="162.980652" style="fill: #ff0000; stroke: #ff0000"/>
     <use xlink:href="#m335a41561e" x="824.208218" y="158.334061" style="fill: #ff0000; stroke: #ff0000"/>
     <use xlink:href="#m335a41561e" x="836.505739" y="188.718573" style="fill: #ff0000; stroke: #ff0000"/>
     <use xlink:href="#m335a41561e" x="848.803259" y="225.599773" style="fill: #ff0000; stroke: #ff0000"/>
     <use xlink:href="#m335a41561e" x="861.10078" y="264.191486" style="fill: #ff0000; stroke: #ff0000"/>
     <use xlink:href="#m335a41561e" x="873.398301" y="299.742471" style="fill: #ff0000; stroke: #ff0000"/>
     <use xlink:href="#m335a41561e" x="885.695821" y="328.026851" style="fill: #ff0000; stroke: #ff0000"/>
     <use xlink:href="#m335a41561e" x="897.993342" y="345.915826" style="fill: #ff0000; stroke: #ff0000"/>
     <use xlink:href="#m335a41561e" x="910.290863" y="352.010555" style="fill: #ff0000; stroke: #ff0000"/>
     <use xlink:href="#m335a41561e" x="922.588383" y="347.050806" style="fill: #ff0000; stroke: #ff0000"/>
     <use xlink:href="#m335a41561e" x="934.885904" y="333.738061" style="fill: #ff0000; stroke: #ff0000"/>
     <use xlink:href="#m335a41561e" x="947.183425" y="315.867921" style="fill: #ff0000; stroke: #ff0000"/>
     <use xlink:href="#m335a41561e" x="959.480945" y="297.098061" style="fill: #ff0000; stroke: #ff0000"/>
     <use xlink:href="#m335a41561e" x="971.778466" y="279.914297" style="fill: #ff0000; stroke: #ff0000"/>
     <use xlink:href="#m335a41561e" x="984.075987" y="265.253845" style="fill: #ff0000; stroke: #ff0000"/>
     <use xlink:href="#m335a41561e" x="996.373507" y="252.823391" style="fill: #ff0000; stroke: #ff0000"/>
     <use xlink:href="#m335a41561e" x="1008.671028" y="241.769482" style="fill: #ff0000; stroke: #ff0000"/>
     <use xlink:href="#m335a41561e" x="1020.968549" y="231.260688" style="fill: #ff0000; stroke: #ff0000"/>
     <use xlink:href="#m335a41561e" x="1033.266069" y="220.748703" style="fill: #ff0000; stroke: #ff0000"/>
     <use xlink:href="#m335a41561e" x="1045.56359" y="209.996464" style="fill: #ff0000; stroke: #ff0000"/>
     <use xlink:href="#m335a41561e" x="1057.861111" y="199.089851" style="fill: #ff0000; stroke: #ff0000"/>
     <use xlink:href="#m335a41561e" x="1070.158631" y="188.567405" style="fill: #ff0000; stroke: #ff0000"/>
     <use xlink:href="#m335a41561e" x="1094.753673" y="235.72628" style="fill: #ff0000; stroke: #ff0000"/>
     <use xlink:href="#m335a41561e" x="1107.051193" y="256.726612" style="fill: #ff0000; stroke: #ff0000"/>
     <use xlink:href="#m335a41561e" x="1119.348714" y="277.013913" style="fill: #ff0000; stroke: #ff0000"/>
     <use xlink:href="#m335a41561e" x="1131.646235" y="295.013367" style="fill: #ff0000; stroke: #ff0000"/>
     <use xlink:href="#m335a41561e" x="1156.241276" y="340.406157" style="fill: #ff0000; stroke: #ff0000"/>
     <use xlink:href="#m335a41561e" x="1168.538796" y="338.113508" style="fill: #ff0000; stroke: #ff0000"/>
     <use xlink:href="#m335a41561e" x="1180.836317" y="327.65888" style="fill: #ff0000; stroke: #ff0000"/>
     <use xlink:href="#m335a41561e" x="1193.133838" y="310.152556" style="fill: #ff0000; stroke: #ff0000"/>
     <use xlink:href="#m335a41561e" x="1205.431358" y="287.974391" style="fill: #ff0000; stroke: #ff0000"/>
     <use xlink:href="#m335a41561e" x="1217.728879" y="264.907631" style="fill: #ff0000; stroke: #ff0000"/>
     <use xlink:href="#m335a41561e" x="1230.0264" y="245.921441" style="fill: #ff0000; stroke: #ff0000"/>
     <use xlink:href="#m335a41561e" x="1328.406565" y="311.174796" style="fill: #ff0000; stroke: #ff0000"/>
    </g>
   </g>
   <g id="PathCollection_3">
    <defs>
     <path id="m3e7705997f" d="M -1.711412 -4.131715 
L -4.131715 -1.711412 
L -4.131715 1.711412 
L -1.711412 4.131715 
L 1.711412 4.131715 
L 4.131715 1.711412 
L 4.131715 -1.711412 
L 1.711412 -4.131715 
z
" style="stroke: #da70d6"/>
    </defs>
    <g clip-path="url(#pe239c73579)">
     <use xlink:href="#m3e7705997f" x="160.142102" y="1267.841062" style="fill: #da70d6; stroke: #da70d6"/>
     <use xlink:href="#m3e7705997f" x="184.737144" y="1235.453911" style="fill: #da70d6; stroke: #da70d6"/>
     <use xlink:href="#m3e7705997f" x="209.332185" y="1189.548397" style="fill: #da70d6; stroke: #da70d6"/>
     <use xlink:href="#m3e7705997f" x="233.927226" y="1131.542558" style="fill: #da70d6; stroke: #da70d6"/>
     <use xlink:href="#m3e7705997f" x="258.522268" y="1062.637832" style="fill: #da70d6; stroke: #da70d6"/>
     <use xlink:href="#m3e7705997f" x="283.117309" y="984.512466" style="fill: #da70d6; stroke: #da70d6"/>
     <use xlink:href="#m3e7705997f" x="307.71235" y="898.491305" style="fill: #da70d6; stroke: #da70d6"/>
     <use xlink:href="#m3e7705997f" x="332.307392" y="806.525175" style="fill: #da70d6; stroke: #da70d6"/>
     <use xlink:href="#m3e7705997f" x="356.902433" y="709.987509" style="fill: #da70d6; stroke: #da70d6"/>
     <use xlink:href="#m3e7705997f" x="369.199954" y="660.445256" style="fill: #da70d6; stroke: #da70d6"/>
     <use xlink:href="#m3e7705997f" x="381.497474" y="615.990456" style="fill: #da70d6; stroke: #da70d6"/>
     <use xlink:href="#m3e7705997f" x="406.092515" y="540.217957" style="fill: #da70d6; stroke: #da70d6"/>
     <use xlink:href="#m3e7705997f" x="430.687557" y="464.244297" style="fill: #da70d6; stroke: #da70d6"/>
     <use xlink:href="#m3e7705997f" x="442.985077" y="422.078417" style="fill: #da70d6; stroke: #da70d6"/>
     <use xlink:href="#m3e7705997f" x="455.282598" y="382.809082" style="fill: #da70d6; stroke: #da70d6"/>
     <use xlink:href="#m3e7705997f" x="479.877639" y="319.325193" style="fill: #da70d6; stroke: #da70d6"/>
     <use xlink:href="#m3e7705997f" x="504.472681" y="257.870914" style="fill: #da70d6; stroke: #da70d6"/>
     <use xlink:href="#m3e7705997f" x="529.067722" y="202.755553" style="fill: #da70d6; stroke: #da70d6"/>
     <use xlink:href="#m3e7705997f" x="553.662763" y="155.30256" style="fill: #da70d6; stroke: #da70d6"/>
     <use xlink:href="#m3e7705997f" x="578.257805" y="119.818161" style="fill: #da70d6; stroke: #da70d6"/>
     <use xlink:href="#m3e7705997f" x="590.555325" y="104.985352" style="fill: #da70d6; stroke: #da70d6"/>
     <use xlink:href="#m3e7705997f" x="602.852846" y="94.692699" style="fill: #da70d6; stroke: #da70d6"/>
     <use xlink:href="#m3e7705997f" x="615.150367" y="89.64753" style="fill: #da70d6; stroke: #da70d6"/>
     <use xlink:href="#m3e7705997f" x="627.447887" y="90.107226" style="fill: #da70d6; stroke: #da70d6"/>
     <use xlink:href="#m3e7705997f" x="824.208218" y="140.085679" style="fill: #da70d6; stroke: #da70d6"/>
     <use xlink:href="#m3e7705997f" x="885.695821" y="173.281869" style="fill: #da70d6; stroke: #da70d6"/>
     <use xlink:href="#m3e7705997f" x="1057.861111" y="91.999702" style="fill: #da70d6; stroke: #da70d6"/>
     <use xlink:href="#m3e7705997f" x="1070.158631" y="92.689001" style="fill: #da70d6; stroke: #da70d6"/>
     <use xlink:href="#m3e7705997f" x="1279.216482" y="121.078584" style="fill: #da70d6; stroke: #da70d6"/>
     <use xlink:href="#m3e7705997f" x="1316.109044" y="133.073169" style="fill: #da70d6; stroke: #da70d6"/>
    </g>
   </g>
   <g id="PathCollection_4">
    <defs>
     <path id="m26a476586d" d="M 0 -6.123724 
L -6.123724 6.123724 
L 6.123724 6.123724 
z
" style="stroke: #da70d6"/>
    </defs>
    <g clip-path="url(#pe239c73579)">
     <use xlink:href="#m26a476586d" x="172.439623" y="1256.44037" style="fill: #da70d6; stroke: #da70d6"/>
     <use xlink:href="#m26a476586d" x="197.034664" y="1216.564517" style="fill: #da70d6; stroke: #da70d6"/>
     <use xlink:href="#m26a476586d" x="221.629706" y="1164.313845" style="fill: #da70d6; stroke: #da70d6"/>
     <use xlink:href="#m26a476586d" x="246.224747" y="1100.468351" style="fill: #da70d6; stroke: #da70d6"/>
     <use xlink:href="#m26a476586d" x="270.819788" y="1026.642099" style="fill: #da70d6; stroke: #da70d6"/>
     <use xlink:href="#m26a476586d" x="295.41483" y="944.149961" style="fill: #da70d6; stroke: #da70d6"/>
     <use xlink:href="#m26a476586d" x="320.009871" y="854.820419" style="fill: #da70d6; stroke: #da70d6"/>
     <use xlink:href="#m26a476586d" x="344.604912" y="760.093807" style="fill: #da70d6; stroke: #da70d6"/>
     <use xlink:href="#m26a476586d" x="393.794995" y="580.157251" style="fill: #da70d6; stroke: #da70d6"/>
     <use xlink:href="#m26a476586d" x="418.390036" y="506.231785" style="fill: #da70d6; stroke: #da70d6"/>
     <use xlink:href="#m26a476586d" x="467.580119" y="354.188853" style="fill: #da70d6; stroke: #da70d6"/>
     <use xlink:href="#m26a476586d" x="492.17516" y="291.933374" style="fill: #da70d6; stroke: #da70d6"/>
     <use xlink:href="#m26a476586d" x="516.770201" y="233.32552" style="fill: #da70d6; stroke: #da70d6"/>
     <use xlink:href="#m26a476586d" x="541.365243" y="179.922456" style="fill: #da70d6; stroke: #da70d6"/>
     <use xlink:href="#m26a476586d" x="565.960284" y="138.113345" style="fill: #da70d6; stroke: #da70d6"/>
     <use xlink:href="#m26a476586d" x="639.745408" y="94.703159" style="fill: #da70d6; stroke: #da70d6"/>
     <use xlink:href="#m26a476586d" x="652.042929" y="100.042652" style="fill: #da70d6; stroke: #da70d6"/>
     <use xlink:href="#m26a476586d" x="664.340449" y="105.761967" style="fill: #da70d6; stroke: #da70d6"/>
     <use xlink:href="#m26a476586d" x="676.63797" y="111.511225" style="fill: #da70d6; stroke: #da70d6"/>
     <use xlink:href="#m26a476586d" x="688.935491" y="116.985957" style="fill: #da70d6; stroke: #da70d6"/>
     <use xlink:href="#m26a476586d" x="701.233011" y="121.935436" style="fill: #da70d6; stroke: #da70d6"/>
     <use xlink:href="#m26a476586d" x="713.530532" y="126.17697" style="fill: #da70d6; stroke: #da70d6"/>
     <use xlink:href="#m26a476586d" x="725.828053" y="129.591122" style="fill: #da70d6; stroke: #da70d6"/>
     <use xlink:href="#m26a476586d" x="738.125573" y="132.124482" style="fill: #da70d6; stroke: #da70d6"/>
     <use xlink:href="#m26a476586d" x="750.423094" y="133.784795" style="fill: #da70d6; stroke: #da70d6"/>
     <use xlink:href="#m26a476586d" x="762.720615" y="134.639672" style="fill: #da70d6; stroke: #da70d6"/>
     <use xlink:href="#m26a476586d" x="775.018135" y="134.80901" style="fill: #da70d6; stroke: #da70d6"/>
     <use xlink:href="#m26a476586d" x="787.315656" y="134.45763" style="fill: #da70d6; stroke: #da70d6"/>
     <use xlink:href="#m26a476586d" x="799.613177" y="133.77236" style="fill: #da70d6; stroke: #da70d6"/>
     <use xlink:href="#m26a476586d" x="811.910697" y="132.946019" style="fill: #da70d6; stroke: #da70d6"/>
     <use xlink:href="#m26a476586d" x="836.505739" y="145.772886" style="fill: #da70d6; stroke: #da70d6"/>
     <use xlink:href="#m26a476586d" x="848.803259" y="151.894919" style="fill: #da70d6; stroke: #da70d6"/>
     <use xlink:href="#m26a476586d" x="861.10078" y="158.206247" style="fill: #da70d6; stroke: #da70d6"/>
     <use xlink:href="#m26a476586d" x="873.398301" y="164.532855" style="fill: #da70d6; stroke: #da70d6"/>
     <use xlink:href="#m26a476586d" x="897.993342" y="175.245259" style="fill: #da70d6; stroke: #da70d6"/>
     <use xlink:href="#m26a476586d" x="910.290863" y="175.90885" style="fill: #da70d6; stroke: #da70d6"/>
     <use xlink:href="#m26a476586d" x="922.588383" y="174.868628" style="fill: #da70d6; stroke: #da70d6"/>
     <use xlink:href="#m26a476586d" x="934.885904" y="171.861335" style="fill: #da70d6; stroke: #da70d6"/>
     <use xlink:href="#m26a476586d" x="947.183425" y="166.793855" style="fill: #da70d6; stroke: #da70d6"/>
     <use xlink:href="#m26a476586d" x="959.480945" y="159.754674" style="fill: #da70d6; stroke: #da70d6"/>
     <use xlink:href="#m26a476586d" x="971.778466" y="151.015266" style="fill: #da70d6; stroke: #da70d6"/>
     <use xlink:href="#m26a476586d" x="984.075987" y="141.013177" style="fill: #da70d6; stroke: #da70d6"/>
     <use xlink:href="#m26a476586d" x="996.373507" y="130.326954" style="fill: #da70d6; stroke: #da70d6"/>
     <use xlink:href="#m26a476586d" x="1008.671028" y="119.629134" style="fill: #da70d6; stroke: #da70d6"/>
     <use xlink:href="#m26a476586d" x="1020.968549" y="109.630062" style="fill: #da70d6; stroke: #da70d6"/>
     <use xlink:href="#m26a476586d" x="1033.266069" y="101.0112" style="fill: #da70d6; stroke: #da70d6"/>
     <use xlink:href="#m26a476586d" x="1045.56359" y="94.355444" style="fill: #da70d6; stroke: #da70d6"/>
     <use xlink:href="#m26a476586d" x="1082.456152" y="93.1827" style="fill: #da70d6; stroke: #da70d6"/>
     <use xlink:href="#m26a476586d" x="1094.753673" y="95.316092" style="fill: #da70d6; stroke: #da70d6"/>
     <use xlink:href="#m26a476586d" x="1107.051193" y="98.839396" style="fill: #da70d6; stroke: #da70d6"/>
     <use xlink:href="#m26a476586d" x="1119.348714" y="103.40161" style="fill: #da70d6; stroke: #da70d6"/>
     <use xlink:href="#m26a476586d" x="1131.646235" y="108.590489" style="fill: #da70d6; stroke: #da70d6"/>
     <use xlink:href="#m26a476586d" x="1143.943755" y="113.959371" style="fill: #da70d6; stroke: #da70d6"/>
     <use xlink:href="#m26a476586d" x="1156.241276" y="119.068202" style="fill: #da70d6; stroke: #da70d6"/>
     <use xlink:href="#m26a476586d" x="1168.538796" y="123.512114" style="fill: #da70d6; stroke: #da70d6"/>
     <use xlink:href="#m26a476586d" x="1180.836317" y="126.963666" style="fill: #da70d6; stroke: #da70d6"/>
     <use xlink:href="#m26a476586d" x="1193.133838" y="129.200555" style="fill: #da70d6; stroke: #da70d6"/>
     <use xlink:href="#m26a476586d" x="1205.431358" y="130.135763" style="fill: #da70d6; stroke: #da70d6"/>
     <use xlink:href="#m26a476586d" x="1217.728879" y="129.828546" style="fill: #da70d6; stroke: #da70d6"/>
     <use xlink:href="#m26a476586d" x="1230.0264" y="128.482798" style="fill: #da70d6; stroke: #da70d6"/>
     <use xlink:href="#m26a476586d" x="1242.32392" y="126.421837" style="fill: #da70d6; stroke: #da70d6"/>
     <use xlink:href="#m26a476586d" x="1254.621441" y="124.046407" style="fill: #da70d6; stroke: #da70d6"/>
     <use xlink:href="#m26a476586d" x="1266.918962" y="121.779007" style="fill: #da70d6; stroke: #da70d6"/>
     <use xlink:href="#m26a476586d" x="1291.514003" y="120.629348" style="fill: #da70d6; stroke: #da70d6"/>
     <use xlink:href="#m26a476586d" x="1303.811524" y="121.947587" style="fill: #da70d6; stroke: #da70d6"/>
     <use xlink:href="#m26a476586d" x="1328.406565" y="146.577184" style="fill: #da70d6; stroke: #da70d6"/>
     <use xlink:href="#m26a476586d" x="1340.704086" y="158.618572" style="fill: #da70d6; stroke: #da70d6"/>
     <use xlink:href="#m26a476586d" x="1353.001606" y="168.458118" style="fill: #da70d6; stroke: #da70d6"/>
     <use xlink:href="#m26a476586d" x="1365.299127" y="175.529217" style="fill: #da70d6; stroke: #da70d6"/>
     <use xlink:href="#m26a476586d" x="1377.596648" y="179.465873" style="fill: #da70d6; stroke: #da70d6"/>
    </g>
   </g>
   <g id="PathCollection_5">
    <defs>
     <path id="m246fb30290" d="M -1.711412 -4.131715 
L -4.131715 -1.711412 
L -4.131715 1.711412 
L -1.711412 4.131715 
L 1.711412 4.131715 
L 4.131715 1.711412 
L 4.131715 -1.711412 
L 1.711412 -4.131715 
z
" style="stroke: #808080"/>
    </defs>
    <g clip-path="url(#pe239c73579)">
     <use xlink:href="#m246fb30290" x="160.142102" y="1278.886976" style="fill: #808080; stroke: #808080"/>
     <use xlink:href="#m246fb30290" x="184.737144" y="1270.205258" style="fill: #808080; stroke: #808080"/>
     <use xlink:href="#m246fb30290" x="209.332185" y="1256.796712" style="fill: #808080; stroke: #808080"/>
     <use xlink:href="#m246fb30290" x="233.927226" y="1238.88993" style="fill: #808080; stroke: #808080"/>
     <use xlink:href="#m246fb30290" x="258.522268" y="1216.701305" style="fill: #808080; stroke: #808080"/>
     <use xlink:href="#m246fb30290" x="283.117309" y="1190.413038" style="fill: #808080; stroke: #808080"/>
     <use xlink:href="#m246fb30290" x="307.71235" y="1160.209668" style="fill: #808080; stroke: #808080"/>
     <use xlink:href="#m246fb30290" x="332.307392" y="1126.287695" style="fill: #808080; stroke: #808080"/>
     <use xlink:href="#m246fb30290" x="356.902433" y="1088.823267" style="fill: #808080; stroke: #808080"/>
     <use xlink:href="#m246fb30290" x="369.199954" y="1067.898636" style="fill: #808080; stroke: #808080"/>
     <use xlink:href="#m246fb30290" x="381.497474" y="1046.76123" style="fill: #808080; stroke: #808080"/>
     <use xlink:href="#m246fb30290" x="406.092515" y="1007.94377" style="fill: #808080; stroke: #808080"/>
     <use xlink:href="#m246fb30290" x="430.687557" y="966.492076" style="fill: #808080; stroke: #808080"/>
     <use xlink:href="#m246fb30290" x="455.282598" y="922.190797" style="fill: #808080; stroke: #808080"/>
     <use xlink:href="#m246fb30290" x="479.877639" y="875.447487" style="fill: #808080; stroke: #808080"/>
     <use xlink:href="#m246fb30290" x="504.472681" y="826.773147" style="fill: #808080; stroke: #808080"/>
     <use xlink:href="#m246fb30290" x="529.067722" y="776.564854" style="fill: #808080; stroke: #808080"/>
     <use xlink:href="#m246fb30290" x="553.662763" y="724.957691" style="fill: #808080; stroke: #808080"/>
     <use xlink:href="#m246fb30290" x="578.257805" y="672.498178" style="fill: #808080; stroke: #808080"/>
     <use xlink:href="#m246fb30290" x="590.555325" y="644.623168" style="fill: #808080; stroke: #808080"/>
     <use xlink:href="#m246fb30290" x="602.852846" y="617.979601" style="fill: #808080; stroke: #808080"/>
     <use xlink:href="#m246fb30290" x="627.447887" y="570.516259" style="fill: #808080; stroke: #808080"/>
     <use xlink:href="#m246fb30290" x="652.042929" y="523.01212" style="fill: #808080; stroke: #808080"/>
     <use xlink:href="#m246fb30290" x="676.63797" y="475.221067" style="fill: #808080; stroke: #808080"/>
     <use xlink:href="#m246fb30290" x="701.233011" y="427.751783" style="fill: #808080; stroke: #808080"/>
     <use xlink:href="#m246fb30290" x="725.828053" y="381.452969" style="fill: #808080; stroke: #808080"/>
     <use xlink:href="#m246fb30290" x="750.423094" y="336.694396" style="fill: #808080; stroke: #808080"/>
     <use xlink:href="#m246fb30290" x="775.018135" y="293.861449" style="fill: #808080; stroke: #808080"/>
     <use xlink:href="#m246fb30290" x="799.613177" y="253.384039" style="fill: #808080; stroke: #808080"/>
     <use xlink:href="#m246fb30290" x="811.910697" y="233.374392" style="fill: #808080; stroke: #808080"/>
     <use xlink:href="#m246fb30290" x="824.208218" y="215.384924" style="fill: #808080; stroke: #808080"/>
     <use xlink:href="#m246fb30290" x="848.803259" y="185.215241" style="fill: #808080; stroke: #808080"/>
     <use xlink:href="#m246fb30290" x="873.398301" y="158.136944" style="fill: #808080; stroke: #808080"/>
     <use xlink:href="#m246fb30290" x="897.993342" y="134.040975" style="fill: #808080; stroke: #808080"/>
     <use xlink:href="#m246fb30290" x="910.290863" y="122.333161" style="fill: #808080; stroke: #808080"/>
     <use xlink:href="#m246fb30290" x="922.588383" y="112.056625" style="fill: #808080; stroke: #808080"/>
     <use xlink:href="#m246fb30290" x="947.183425" y="96.847375" style="fill: #808080; stroke: #808080"/>
     <use xlink:href="#m246fb30290" x="971.778466" y="85.401682" style="fill: #808080; stroke: #808080"/>
     <use xlink:href="#m246fb30290" x="984.075987" y="80.408024" style="fill: #808080; stroke: #808080"/>
     <use xlink:href="#m246fb30290" x="996.373507" y="76.486521" style="fill: #808080; stroke: #808080"/>
     <use xlink:href="#m246fb30290" x="1008.671028" y="73.759141" style="fill: #808080; stroke: #808080"/>
     <use xlink:href="#m246fb30290" x="1045.56359" y="72.879109" style="fill: #808080; stroke: #808080"/>
    </g>
   </g>
   <g id="PathCollection_6">
    <defs>
     <path id="m926247143c" d="M 0 -6.123724 
L -6.123724 6.123724 
L 6.123724 6.123724 
z
" style="stroke: #808080"/>
    </defs>
    <g clip-path="url(#pe239c73579)">
     <use xlink:href="#m926247143c" x="172.439623" y="1275.916246" style="fill: #808080; stroke: #808080"/>
     <use xlink:href="#m926247143c" x="197.034664" y="1264.772698" style="fill: #808080; stroke: #808080"/>
     <use xlink:href="#m926247143c" x="221.629706" y="1249.069512" style="fill: #808080; stroke: #808080"/>
     <use xlink:href="#m926247143c" x="246.224747" y="1228.975567" style="fill: #808080; stroke: #808080"/>
     <use xlink:href="#m926247143c" x="270.819788" y="1204.700384" style="fill: #808080; stroke: #808080"/>
     <use xlink:href="#m926247143c" x="295.41483" y="1176.410678" style="fill: #808080; stroke: #808080"/>
     <use xlink:href="#m926247143c" x="320.009871" y="1144.311024" style="fill: #808080; stroke: #808080"/>
     <use xlink:href="#m926247143c" x="344.604912" y="1108.569955" style="fill: #808080; stroke: #808080"/>
     <use xlink:href="#m926247143c" x="393.794995" y="1029.484857" style="fill: #808080; stroke: #808080"/>
     <use xlink:href="#m926247143c" x="418.390036" y="989.844248" style="fill: #808080; stroke: #808080"/>
     <use xlink:href="#m926247143c" x="442.985077" y="946.942915" style="fill: #808080; stroke: #808080"/>
     <use xlink:href="#m926247143c" x="467.580119" y="901.137121" style="fill: #808080; stroke: #808080"/>
     <use xlink:href="#m926247143c" x="492.17516" y="853.418167" style="fill: #808080; stroke: #808080"/>
     <use xlink:href="#m926247143c" x="516.770201" y="803.748686" style="fill: #808080; stroke: #808080"/>
     <use xlink:href="#m926247143c" x="541.365243" y="752.838737" style="fill: #808080; stroke: #808080"/>
     <use xlink:href="#m926247143c" x="565.960284" y="700.540331" style="fill: #808080; stroke: #808080"/>
     <use xlink:href="#m926247143c" x="615.150367" y="596.300319" style="fill: #808080; stroke: #808080"/>
     <use xlink:href="#m926247143c" x="639.745408" y="549.245431" style="fill: #808080; stroke: #808080"/>
     <use xlink:href="#m926247143c" x="664.340449" y="501.50453" style="fill: #808080; stroke: #808080"/>
     <use xlink:href="#m926247143c" x="688.935491" y="453.429424" style="fill: #808080; stroke: #808080"/>
     <use xlink:href="#m926247143c" x="713.530532" y="406.448832" style="fill: #808080; stroke: #808080"/>
     <use xlink:href="#m926247143c" x="738.125573" y="360.585143" style="fill: #808080; stroke: #808080"/>
     <use xlink:href="#m926247143c" x="762.720615" y="316.687009" style="fill: #808080; stroke: #808080"/>
     <use xlink:href="#m926247143c" x="787.315656" y="274.690752" style="fill: #808080; stroke: #808080"/>
     <use xlink:href="#m926247143c" x="836.505739" y="200.978835" style="fill: #808080; stroke: #808080"/>
     <use xlink:href="#m926247143c" x="861.10078" y="172.508082" style="fill: #808080; stroke: #808080"/>
     <use xlink:href="#m926247143c" x="885.695821" y="146.775912" style="fill: #808080; stroke: #808080"/>
     <use xlink:href="#m926247143c" x="934.885904" y="104.426189" style="fill: #808080; stroke: #808080"/>
     <use xlink:href="#m926247143c" x="959.480945" y="91.305583" style="fill: #808080; stroke: #808080"/>
     <use xlink:href="#m926247143c" x="1020.968549" y="72.543829" style="fill: #808080; stroke: #808080"/>
     <use xlink:href="#m926247143c" x="1033.266069" y="72.115593" style="fill: #808080; stroke: #808080"/>
     <use xlink:href="#m926247143c" x="1057.861111" y="75.009199" style="fill: #808080; stroke: #808080"/>
     <use xlink:href="#m926247143c" x="1070.158631" y="77.6717" style="fill: #808080; stroke: #808080"/>
     <use xlink:href="#m926247143c" x="1082.456152" y="80.789553" style="fill: #808080; stroke: #808080"/>
     <use xlink:href="#m926247143c" x="1094.753673" y="84.28007" style="fill: #808080; stroke: #808080"/>
     <use xlink:href="#m926247143c" x="1107.051193" y="88.054561" style="fill: #808080; stroke: #808080"/>
     <use xlink:href="#m926247143c" x="1119.348714" y="92.02296" style="fill: #808080; stroke: #808080"/>
     <use xlink:href="#m926247143c" x="1131.646235" y="96.091854" style="fill: #808080; stroke: #808080"/>
     <use xlink:href="#m926247143c" x="1143.943755" y="100.165741" style="fill: #808080; stroke: #808080"/>
     <use xlink:href="#m926247143c" x="1156.241276" y="104.150716" style="fill: #808080; stroke: #808080"/>
     <use xlink:href="#m926247143c" x="1168.538796" y="107.955529" style="fill: #808080; stroke: #808080"/>
     <use xlink:href="#m926247143c" x="1180.836317" y="111.492485" style="fill: #808080; stroke: #808080"/>
     <use xlink:href="#m926247143c" x="1193.133838" y="114.685218" style="fill: #808080; stroke: #808080"/>
     <use xlink:href="#m926247143c" x="1205.431358" y="117.467885" style="fill: #808080; stroke: #808080"/>
     <use xlink:href="#m926247143c" x="1217.728879" y="119.793021" style="fill: #808080; stroke: #808080"/>
     <use xlink:href="#m926247143c" x="1230.0264" y="121.6319" style="fill: #808080; stroke: #808080"/>
     <use xlink:href="#m926247143c" x="1242.32392" y="122.978676" style="fill: #808080; stroke: #808080"/>
     <use xlink:href="#m926247143c" x="1254.621441" y="123.84948" style="fill: #808080; stroke: #808080"/>
     <use xlink:href="#m926247143c" x="1266.918962" y="124.282709" style="fill: #808080; stroke: #808080"/>
     <use xlink:href="#m926247143c" x="1279.216482" y="124.335358" style="fill: #808080; stroke: #808080"/>
     <use xlink:href="#m926247143c" x="1291.514003" y="124.081358" style="fill: #808080; stroke: #808080"/>
     <use xlink:href="#m926247143c" x="1303.811524" y="123.602543" style="fill: #808080; stroke: #808080"/>
     <use xlink:href="#m926247143c" x="1316.109044" y="122.98735" style="fill: #808080; stroke: #808080"/>
     <use xlink:href="#m926247143c" x="1328.406565" y="122.31913" style="fill: #808080; stroke: #808080"/>
     <use xlink:href="#m926247143c" x="1340.704086" y="121.677107" style="fill: #808080; stroke: #808080"/>
     <use xlink:href="#m926247143c" x="1353.001606" y="121.12398" style="fill: #808080; stroke: #808080"/>
     <use xlink:href="#m926247143c" x="1365.299127" y="120.707894" style="fill: #808080; stroke: #808080"/>
     <use xlink:href="#m926247143c" x="1377.596648" y="120.458035" style="fill: #808080; stroke: #808080"/>
    </g>
   </g>
   <g id="PathCollection_7">
    <defs>
     <path id="m92345800f0" d="M -1.711412 -4.131715 
L -4.131715 -1.711412 
L -4.131715 1.711412 
L -1.711412 4.131715 
L 1.711412 4.131715 
L 4.131715 1.711412 
L 4.131715 -1.711412 
L 1.711412 -4.131715 
z
" style="stroke: #cd853f"/>
    </defs>
    <g clip-path="url(#pe239c73579)">
     <use xlink:href="#m92345800f0" x="160.142102" y="1281.715593" style="fill: #cd853f; stroke: #cd853f"/>
     <use xlink:href="#m92345800f0" x="172.439623" y="1280.238365" style="fill: #cd853f; stroke: #cd853f"/>
     <use xlink:href="#m92345800f0" x="197.034664" y="1277.359597" style="fill: #cd853f; stroke: #cd853f"/>
     <use xlink:href="#m92345800f0" x="221.629706" y="1273.214337" style="fill: #cd853f; stroke: #cd853f"/>
     <use xlink:href="#m92345800f0" x="233.927226" y="1269.842848" style="fill: #cd853f; stroke: #cd853f"/>
     <use xlink:href="#m92345800f0" x="246.224747" y="1265.967958" style="fill: #cd853f; stroke: #cd853f"/>
     <use xlink:href="#m92345800f0" x="270.819788" y="1259.701284" style="fill: #cd853f; stroke: #cd853f"/>
     <use xlink:href="#m92345800f0" x="295.41483" y="1252.29353" style="fill: #cd853f; stroke: #cd853f"/>
     <use xlink:href="#m92345800f0" x="307.71235" y="1246.796977" style="fill: #cd853f; stroke: #cd853f"/>
     <use xlink:href="#m92345800f0" x="320.009871" y="1240.868979" style="fill: #cd853f; stroke: #cd853f"/>
     <use xlink:href="#m92345800f0" x="332.307392" y="1234.652109" style="fill: #cd853f; stroke: #cd853f"/>
     <use xlink:href="#m92345800f0" x="344.604912" y="1228.313066" style="fill: #cd853f; stroke: #cd853f"/>
     <use xlink:href="#m92345800f0" x="356.902433" y="1222.033703" style="fill: #cd853f; stroke: #cd853f"/>
     <use xlink:href="#m92345800f0" x="369.199954" y="1216.001056" style="fill: #cd853f; stroke: #cd853f"/>
     <use xlink:href="#m92345800f0" x="393.794995" y="1207.712038" style="fill: #cd853f; stroke: #cd853f"/>
     <use xlink:href="#m92345800f0" x="418.390036" y="1198.618959" style="fill: #cd853f; stroke: #cd853f"/>
     <use xlink:href="#m92345800f0" x="430.687557" y="1191.511913" style="fill: #cd853f; stroke: #cd853f"/>
     <use xlink:href="#m92345800f0" x="442.985077" y="1184.007347" style="fill: #cd853f; stroke: #cd853f"/>
     <use xlink:href="#m92345800f0" x="455.282598" y="1176.21669" style="fill: #cd853f; stroke: #cd853f"/>
     <use xlink:href="#m92345800f0" x="467.580119" y="1168.270774" style="fill: #cd853f; stroke: #cd853f"/>
     <use xlink:href="#m92345800f0" x="492.17516" y="1157.285156" style="fill: #cd853f; stroke: #cd853f"/>
     <use xlink:href="#m92345800f0" x="516.770201" y="1145.384523" style="fill: #cd853f; stroke: #cd853f"/>
     <use xlink:href="#m92345800f0" x="529.067722" y="1136.287004" style="fill: #cd853f; stroke: #cd853f"/>
     <use xlink:href="#m92345800f0" x="541.365243" y="1126.937191" style="fill: #cd853f; stroke: #cd853f"/>
     <use xlink:href="#m92345800f0" x="553.662763" y="1117.495844" style="fill: #cd853f; stroke: #cd853f"/>
     <use xlink:href="#m92345800f0" x="565.960284" y="1108.138748" style="fill: #cd853f; stroke: #cd853f"/>
     <use xlink:href="#m92345800f0" x="578.257805" y="1099.050409" style="fill: #cd853f; stroke: #cd853f"/>
     <use xlink:href="#m92345800f0" x="590.555325" y="1090.416489" style="fill: #cd853f; stroke: #cd853f"/>
     <use xlink:href="#m92345800f0" x="615.150367" y="1078.886087" style="fill: #cd853f; stroke: #cd853f"/>
     <use xlink:href="#m92345800f0" x="639.745408" y="1066.614338" style="fill: #cd853f; stroke: #cd853f"/>
     <use xlink:href="#m92345800f0" x="652.042929" y="1057.013054" style="fill: #cd853f; stroke: #cd853f"/>
     <use xlink:href="#m92345800f0" x="664.340449" y="1047.096447" style="fill: #cd853f; stroke: #cd853f"/>
     <use xlink:href="#m92345800f0" x="676.63797" y="1037.016095" style="fill: #cd853f; stroke: #cd853f"/>
     <use xlink:href="#m92345800f0" x="688.935491" y="1026.937718" style="fill: #cd853f; stroke: #cd853f"/>
     <use xlink:href="#m92345800f0" x="713.530532" y="1013.324203" style="fill: #cd853f; stroke: #cd853f"/>
     <use xlink:href="#m92345800f0" x="738.125573" y="998.941056" style="fill: #cd853f; stroke: #cd853f"/>
     <use xlink:href="#m92345800f0" x="750.423094" y="987.929809" style="fill: #cd853f; stroke: #cd853f"/>
     <use xlink:href="#m92345800f0" x="762.720615" y="976.784697" style="fill: #cd853f; stroke: #cd853f"/>
     <use xlink:href="#m92345800f0" x="775.018135" y="965.693656" style="fill: #cd853f; stroke: #cd853f"/>
     <use xlink:href="#m92345800f0" x="787.315656" y="954.853074" style="fill: #cd853f; stroke: #cd853f"/>
     <use xlink:href="#m92345800f0" x="799.613177" y="944.461618" style="fill: #cd853f; stroke: #cd853f"/>
     <use xlink:href="#m92345800f0" x="811.910697" y="934.71397" style="fill: #cd853f; stroke: #cd853f"/>
     <use xlink:href="#m92345800f0" x="836.505739" y="921.788379" style="fill: #cd853f; stroke: #cd853f"/>
     <use xlink:href="#m92345800f0" x="861.10078" y="908.296405" style="fill: #cd853f; stroke: #cd853f"/>
     <use xlink:href="#m92345800f0" x="873.398301" y="897.783993" style="fill: #cd853f; stroke: #cd853f"/>
     <use xlink:href="#m92345800f0" x="885.695821" y="887.034267" style="fill: #cd853f; stroke: #cd853f"/>
     <use xlink:href="#m92345800f0" x="897.993342" y="876.213594" style="fill: #cd853f; stroke: #cd853f"/>
     <use xlink:href="#m92345800f0" x="910.290863" y="865.498978" style="fill: #cd853f; stroke: #cd853f"/>
     <use xlink:href="#m92345800f0" x="934.885904" y="851.127034" style="fill: #cd853f; stroke: #cd853f"/>
     <use xlink:href="#m92345800f0" x="959.480945" y="836.211097" style="fill: #cd853f; stroke: #cd853f"/>
     <use xlink:href="#m92345800f0" x="971.778466" y="824.862216" style="fill: #cd853f; stroke: #cd853f"/>
     <use xlink:href="#m92345800f0" x="984.075987" y="813.503697" style="fill: #cd853f; stroke: #cd853f"/>
     <use xlink:href="#m92345800f0" x="996.373507" y="802.325181" style="fill: #cd853f; stroke: #cd853f"/>
     <use xlink:href="#m92345800f0" x="1008.671028" y="791.520531" style="fill: #cd853f; stroke: #cd853f"/>
     <use xlink:href="#m92345800f0" x="1020.968549" y="781.279595" style="fill: #cd853f; stroke: #cd853f"/>
     <use xlink:href="#m92345800f0" x="1033.266069" y="771.784651" style="fill: #cd853f; stroke: #cd853f"/>
     <use xlink:href="#m92345800f0" x="1057.861111" y="759.215339" style="fill: #cd853f; stroke: #cd853f"/>
     <use xlink:href="#m92345800f0" x="1082.456152" y="746.31168" style="fill: #cd853f; stroke: #cd853f"/>
     <use xlink:href="#m92345800f0" x="1094.753673" y="736.364055" style="fill: #cd853f; stroke: #cd853f"/>
     <use xlink:href="#m92345800f0" x="1107.051193" y="726.291715" style="fill: #cd853f; stroke: #cd853f"/>
     <use xlink:href="#m92345800f0" x="1131.646235" y="712.691251" style="fill: #cd853f; stroke: #cd853f"/>
     <use xlink:href="#m92345800f0" x="1143.943755" y="702.133537" style="fill: #cd853f; stroke: #cd853f"/>
     <use xlink:href="#m92345800f0" x="1156.241276" y="691.614442" style="fill: #cd853f; stroke: #cd853f"/>
     <use xlink:href="#m92345800f0" x="1180.836317" y="677.945828" style="fill: #cd853f; stroke: #cd853f"/>
     <use xlink:href="#m92345800f0" x="1205.431358" y="663.924475" style="fill: #cd853f; stroke: #cd853f"/>
     <use xlink:href="#m92345800f0" x="1217.728879" y="653.08568" style="fill: #cd853f; stroke: #cd853f"/>
     <use xlink:href="#m92345800f0" x="1230.0264" y="642.263886" style="fill: #cd853f; stroke: #cd853f"/>
     <use xlink:href="#m92345800f0" x="1242.32392" y="631.63431" style="fill: #cd853f; stroke: #cd853f"/>
     <use xlink:href="#m92345800f0" x="1254.621441" y="621.370304" style="fill: #cd853f; stroke: #cd853f"/>
     <use xlink:href="#m92345800f0" x="1279.216482" y="608.489998" style="fill: #cd853f; stroke: #cd853f"/>
     <use xlink:href="#m92345800f0" x="1303.811524" y="595.194113" style="fill: #cd853f; stroke: #cd853f"/>
     <use xlink:href="#m92345800f0" x="1316.109044" y="584.944375" style="fill: #cd853f; stroke: #cd853f"/>
     <use xlink:href="#m92345800f0" x="1328.406565" y="574.700468" style="fill: #cd853f; stroke: #cd853f"/>
     <use xlink:href="#m92345800f0" x="1340.704086" y="564.627085" style="fill: #cd853f; stroke: #cd853f"/>
     <use xlink:href="#m92345800f0" x="1353.001606" y="554.88827" style="fill: #cd853f; stroke: #cd853f"/>
     <use xlink:href="#m92345800f0" x="1377.596648" y="542.574885" style="fill: #cd853f; stroke: #cd853f"/>
    </g>
   </g>
   <g id="PathCollection_8">
    <defs>
     <path id="m412ebbcb51" d="M 0 -6.123724 
L -6.123724 6.123724 
L 6.123724 6.123724 
z
" style="stroke: #cd853f"/>
    </defs>
    <g clip-path="url(#pe239c73579)">
     <use xlink:href="#m412ebbcb51" x="184.737144" y="1279.496133" style="fill: #cd853f; stroke: #cd853f"/>
     <use xlink:href="#m412ebbcb51" x="209.332185" y="1275.979924" style="fill: #cd853f; stroke: #cd853f"/>
     <use xlink:href="#m412ebbcb51" x="258.522268" y="1264.038461" style="fill: #cd853f; stroke: #cd853f"/>
     <use xlink:href="#m412ebbcb51" x="283.117309" y="1257.246865" style="fill: #cd853f; stroke: #cd853f"/>
     <use xlink:href="#m412ebbcb51" x="381.497474" y="1213.690836" style="fill: #cd853f; stroke: #cd853f"/>
     <use xlink:href="#m412ebbcb51" x="406.092515" y="1205.238547" style="fill: #cd853f; stroke: #cd853f"/>
     <use xlink:href="#m412ebbcb51" x="479.877639" y="1165.445491" style="fill: #cd853f; stroke: #cd853f"/>
     <use xlink:href="#m412ebbcb51" x="504.472681" y="1154.088236" style="fill: #cd853f; stroke: #cd853f"/>
     <use xlink:href="#m412ebbcb51" x="602.852846" y="1087.440544" style="fill: #cd853f; stroke: #cd853f"/>
     <use xlink:href="#m412ebbcb51" x="627.447887" y="1075.765817" style="fill: #cd853f; stroke: #cd853f"/>
     <use xlink:href="#m412ebbcb51" x="701.233011" y="1023.5987" style="fill: #cd853f; stroke: #cd853f"/>
     <use xlink:href="#m412ebbcb51" x="725.828053" y="1009.644422" style="fill: #cd853f; stroke: #cd853f"/>
     <use xlink:href="#m412ebbcb51" x="824.208218" y="931.445219" style="fill: #cd853f; stroke: #cd853f"/>
     <use xlink:href="#m412ebbcb51" x="848.803259" y="918.416875" style="fill: #cd853f; stroke: #cd853f"/>
     <use xlink:href="#m412ebbcb51" x="922.588383" y="862.053415" style="fill: #cd853f; stroke: #cd853f"/>
     <use xlink:href="#m412ebbcb51" x="947.183425" y="847.366764" style="fill: #cd853f; stroke: #cd853f"/>
     <use xlink:href="#m412ebbcb51" x="1045.56359" y="768.632289" style="fill: #cd853f; stroke: #cd853f"/>
     <use xlink:href="#m412ebbcb51" x="1070.158631" y="755.984083" style="fill: #cd853f; stroke: #cd853f"/>
     <use xlink:href="#m412ebbcb51" x="1119.348714" y="723.118196" style="fill: #cd853f; stroke: #cd853f"/>
     <use xlink:href="#m412ebbcb51" x="1168.538796" y="688.195582" style="fill: #cd853f; stroke: #cd853f"/>
     <use xlink:href="#m412ebbcb51" x="1193.133838" y="674.610097" style="fill: #cd853f; stroke: #cd853f"/>
     <use xlink:href="#m412ebbcb51" x="1266.918962" y="618.121968" style="fill: #cd853f; stroke: #cd853f"/>
     <use xlink:href="#m412ebbcb51" x="1291.514003" y="605.290108" style="fill: #cd853f; stroke: #cd853f"/>
     <use xlink:href="#m412ebbcb51" x="1365.299127" y="551.718843" style="fill: #cd853f; stroke: #cd853f"/>
    </g>
   </g>
   <g id="matplotlib.axis_1">
    <g id="xtick_1">
     <g id="line2d_1">
      <defs>
       <path id="m1092786119" d="M 0 0 
L 0 -3.5 
" style="stroke: #000000; stroke-width: 0.8"/>
      </defs>
      <g>
       <use xlink:href="#m1092786119" x="160.142102" y="1342.195593" style="stroke: #000000; stroke-width: 0.8"/>
      </g>
     </g>
     <g id="line2d_2">
      <defs>
       <path id="m196fdbed35" d="M 0 0 
L 0 3.5 
" style="stroke: #000000; stroke-width: 0.8"/>
      </defs>
      <g>
       <use xlink:href="#m196fdbed35" x="160.142102" y="11.635593" style="stroke: #000000; stroke-width: 0.8"/>
      </g>
     </g>
     <g id="text_1">
      <!-- 0 -->
      <g transform="translate(150.598352 1368.490905)scale(0.3 -0.3)">
       <defs>
        <path id="DejaVuSans-30" d="M 2034 4250 
Q 1547 4250 1301 3770 
Q 1056 3291 1056 2328 
Q 1056 1369 1301 889 
Q 1547 409 2034 409 
Q 2525 409 2770 889 
Q 3016 1369 3016 2328 
Q 3016 3291 2770 3770 
Q 2525 4250 2034 4250 
z
M 2034 4750 
Q 2819 4750 3233 4129 
Q 3647 3509 3647 2328 
Q 3647 1150 3233 529 
Q 2819 -91 2034 -91 
Q 1250 -91 836 529 
Q 422 1150 422 2328 
Q 422 3509 836 4129 
Q 1250 4750 2034 4750 
z
" transform="scale(0.015625)"/>
       </defs>
       <use xlink:href="#DejaVuSans-30"/>
      </g>
     </g>
    </g>
    <g id="xtick_2">
     <g id="line2d_3">
      <g>
       <use xlink:href="#m1092786119" x="406.092515" y="1342.195593" style="stroke: #000000; stroke-width: 0.8"/>
      </g>
     </g>
     <g id="line2d_4">
      <g>
       <use xlink:href="#m196fdbed35" x="406.092515" y="11.635593" style="stroke: #000000; stroke-width: 0.8"/>
      </g>
     </g>
     <g id="text_2">
      <!-- 20 -->
      <g transform="translate(387.005015 1368.490905)scale(0.3 -0.3)">
       <defs>
        <path id="DejaVuSans-32" d="M 1228 531 
L 3431 531 
L 3431 0 
L 469 0 
L 469 531 
Q 828 903 1448 1529 
Q 2069 2156 2228 2338 
Q 2531 2678 2651 2914 
Q 2772 3150 2772 3378 
Q 2772 3750 2511 3984 
Q 2250 4219 1831 4219 
Q 1534 4219 1204 4116 
Q 875 4013 500 3803 
L 500 4441 
Q 881 4594 1212 4672 
Q 1544 4750 1819 4750 
Q 2544 4750 2975 4387 
Q 3406 4025 3406 3419 
Q 3406 3131 3298 2873 
Q 3191 2616 2906 2266 
Q 2828 2175 2409 1742 
Q 1991 1309 1228 531 
z
" transform="scale(0.015625)"/>
       </defs>
       <use xlink:href="#DejaVuSans-32"/>
       <use xlink:href="#DejaVuSans-30" x="63.623047"/>
      </g>
     </g>
    </g>
    <g id="xtick_3">
     <g id="line2d_5">
      <g>
       <use xlink:href="#m1092786119" x="652.042929" y="1342.195593" style="stroke: #000000; stroke-width: 0.8"/>
      </g>
     </g>
     <g id="line2d_6">
      <g>
       <use xlink:href="#m196fdbed35" x="652.042929" y="11.635593" style="stroke: #000000; stroke-width: 0.8"/>
      </g>
     </g>
     <g id="text_3">
      <!-- 40 -->
      <g transform="translate(632.955429 1368.490905)scale(0.3 -0.3)">
       <defs>
        <path id="DejaVuSans-34" d="M 2419 4116 
L 825 1625 
L 2419 1625 
L 2419 4116 
z
M 2253 4666 
L 3047 4666 
L 3047 1625 
L 3713 1625 
L 3713 1100 
L 3047 1100 
L 3047 0 
L 2419 0 
L 2419 1100 
L 313 1100 
L 313 1709 
L 2253 4666 
z
" transform="scale(0.015625)"/>
       </defs>
       <use xlink:href="#DejaVuSans-34"/>
       <use xlink:href="#DejaVuSans-30" x="63.623047"/>
      </g>
     </g>
    </g>
    <g id="xtick_4">
     <g id="line2d_7">
      <g>
       <use xlink:href="#m1092786119" x="897.993342" y="1342.195593" style="stroke: #000000; stroke-width: 0.8"/>
      </g>
     </g>
     <g id="line2d_8">
      <g>
       <use xlink:href="#m196fdbed35" x="897.993342" y="11.635593" style="stroke: #000000; stroke-width: 0.8"/>
      </g>
     </g>
     <g id="text_4">
      <!-- 60 -->
      <g transform="translate(878.905842 1368.490905)scale(0.3 -0.3)">
       <defs>
        <path id="DejaVuSans-36" d="M 2113 2584 
Q 1688 2584 1439 2293 
Q 1191 2003 1191 1497 
Q 1191 994 1439 701 
Q 1688 409 2113 409 
Q 2538 409 2786 701 
Q 3034 994 3034 1497 
Q 3034 2003 2786 2293 
Q 2538 2584 2113 2584 
z
M 3366 4563 
L 3366 3988 
Q 3128 4100 2886 4159 
Q 2644 4219 2406 4219 
Q 1781 4219 1451 3797 
Q 1122 3375 1075 2522 
Q 1259 2794 1537 2939 
Q 1816 3084 2150 3084 
Q 2853 3084 3261 2657 
Q 3669 2231 3669 1497 
Q 3669 778 3244 343 
Q 2819 -91 2113 -91 
Q 1303 -91 875 529 
Q 447 1150 447 2328 
Q 447 3434 972 4092 
Q 1497 4750 2381 4750 
Q 2619 4750 2861 4703 
Q 3103 4656 3366 4563 
z
" transform="scale(0.015625)"/>
       </defs>
       <use xlink:href="#DejaVuSans-36"/>
       <use xlink:href="#DejaVuSans-30" x="63.623047"/>
      </g>
     </g>
    </g>
    <g id="xtick_5">
     <g id="line2d_9">
      <g>
       <use xlink:href="#m1092786119" x="1143.943755" y="1342.195593" style="stroke: #000000; stroke-width: 0.8"/>
      </g>
     </g>
     <g id="line2d_10">
      <g>
       <use xlink:href="#m196fdbed35" x="1143.943755" y="11.635593" style="stroke: #000000; stroke-width: 0.8"/>
      </g>
     </g>
     <g id="text_5">
      <!-- 80 -->
      <g transform="translate(1124.856255 1368.490905)scale(0.3 -0.3)">
       <defs>
        <path id="DejaVuSans-38" d="M 2034 2216 
Q 1584 2216 1326 1975 
Q 1069 1734 1069 1313 
Q 1069 891 1326 650 
Q 1584 409 2034 409 
Q 2484 409 2743 651 
Q 3003 894 3003 1313 
Q 3003 1734 2745 1975 
Q 2488 2216 2034 2216 
z
M 1403 2484 
Q 997 2584 770 2862 
Q 544 3141 544 3541 
Q 544 4100 942 4425 
Q 1341 4750 2034 4750 
Q 2731 4750 3128 4425 
Q 3525 4100 3525 3541 
Q 3525 3141 3298 2862 
Q 3072 2584 2669 2484 
Q 3125 2378 3379 2068 
Q 3634 1759 3634 1313 
Q 3634 634 3220 271 
Q 2806 -91 2034 -91 
Q 1263 -91 848 271 
Q 434 634 434 1313 
Q 434 1759 690 2068 
Q 947 2378 1403 2484 
z
M 1172 3481 
Q 1172 3119 1398 2916 
Q 1625 2713 2034 2713 
Q 2441 2713 2670 2916 
Q 2900 3119 2900 3481 
Q 2900 3844 2670 4047 
Q 2441 4250 2034 4250 
Q 1625 4250 1398 4047 
Q 1172 3844 1172 3481 
z
" transform="scale(0.015625)"/>
       </defs>
       <use xlink:href="#DejaVuSans-38"/>
       <use xlink:href="#DejaVuSans-30" x="63.623047"/>
      </g>
     </g>
    </g>
    <g id="xtick_6">
     <g id="line2d_11">
      <g>
       <use xlink:href="#m1092786119" x="1389.894168" y="1342.195593" style="stroke: #000000; stroke-width: 0.8"/>
      </g>
     </g>
     <g id="line2d_12">
      <g>
       <use xlink:href="#m196fdbed35" x="1389.894168" y="11.635593" style="stroke: #000000; stroke-width: 0.8"/>
      </g>
     </g>
     <g id="text_6">
      <!-- 100 -->
      <g transform="translate(1361.262918 1368.490905)scale(0.3 -0.3)">
       <defs>
        <path id="DejaVuSans-31" d="M 794 531 
L 1825 531 
L 1825 4091 
L 703 3866 
L 703 4441 
L 1819 4666 
L 2450 4666 
L 2450 531 
L 3481 531 
L 3481 0 
L 794 0 
L 794 531 
z
" transform="scale(0.015625)"/>
       </defs>
       <use xlink:href="#DejaVuSans-31"/>
       <use xlink:href="#DejaVuSans-30" x="63.623047"/>
       <use xlink:href="#DejaVuSans-30" x="127.246094"/>
      </g>
     </g>
    </g>
    <g id="text_7">
     <!-- $Number\ of\ Accesses\ to\ Oracle$ -->
     <g transform="translate(481.589375 1407.60403)scale(0.38 -0.38)">
      <defs>
       <path id="DejaVuSans-Oblique-4e" d="M 1081 4666 
L 1931 4666 
L 3219 666 
L 4000 4666 
L 4616 4666 
L 3706 0 
L 2853 0 
L 1569 4025 
L 788 0 
L 172 0 
L 1081 4666 
z
" transform="scale(0.015625)"/>
       <path id="DejaVuSans-Oblique-75" d="M 428 1388 
L 838 3500 
L 1416 3500 
L 1006 1409 
Q 975 1256 961 1147 
Q 947 1038 947 966 
Q 947 700 1109 554 
Q 1272 409 1569 409 
Q 2031 409 2368 721 
Q 2706 1034 2809 1563 
L 3194 3500 
L 3769 3500 
L 3091 0 
L 2516 0 
L 2631 550 
Q 2388 244 2052 76 
Q 1716 -91 1338 -91 
Q 878 -91 622 161 
Q 366 413 366 863 
Q 366 956 381 1097 
Q 397 1238 428 1388 
z
" transform="scale(0.015625)"/>
       <path id="DejaVuSans-Oblique-6d" d="M 5747 2113 
L 5338 0 
L 4763 0 
L 5166 2094 
Q 5191 2228 5203 2325 
Q 5216 2422 5216 2491 
Q 5216 2772 5059 2928 
Q 4903 3084 4622 3084 
Q 4203 3084 3875 2770 
Q 3547 2456 3450 1953 
L 3066 0 
L 2491 0 
L 2900 2094 
Q 2925 2209 2937 2307 
Q 2950 2406 2950 2484 
Q 2950 2769 2794 2926 
Q 2638 3084 2363 3084 
Q 1938 3084 1609 2770 
Q 1281 2456 1184 1953 
L 800 0 
L 225 0 
L 909 3500 
L 1484 3500 
L 1375 2956 
Q 1609 3263 1923 3423 
Q 2238 3584 2597 3584 
Q 2978 3584 3223 3384 
Q 3469 3184 3519 2828 
Q 3781 3197 4126 3390 
Q 4472 3584 4856 3584 
Q 5306 3584 5551 3325 
Q 5797 3066 5797 2591 
Q 5797 2488 5784 2364 
Q 5772 2241 5747 2113 
z
" transform="scale(0.015625)"/>
       <path id="DejaVuSans-Oblique-62" d="M 3169 2138 
Q 3169 2591 2961 2847 
Q 2753 3103 2388 3103 
Q 2122 3103 1889 2973 
Q 1656 2844 1484 2597 
Q 1303 2338 1198 1995 
Q 1094 1653 1094 1313 
Q 1094 881 1298 636 
Q 1503 391 1863 391 
Q 2134 391 2365 517 
Q 2597 644 2772 891 
Q 2950 1147 3059 1487 
Q 3169 1828 3169 2138 
z
M 1381 2969 
Q 1594 3256 1914 3420 
Q 2234 3584 2584 3584 
Q 3122 3584 3439 3221 
Q 3756 2859 3756 2241 
Q 3756 1734 3570 1259 
Q 3384 784 3041 416 
Q 2816 172 2522 40 
Q 2228 -91 1906 -91 
Q 1566 -91 1316 65 
Q 1066 222 909 531 
L 806 0 
L 231 0 
L 1178 4863 
L 1753 4863 
L 1381 2969 
z
" transform="scale(0.015625)"/>
       <path id="DejaVuSans-Oblique-65" d="M 3078 2063 
Q 3088 2113 3092 2166 
Q 3097 2219 3097 2272 
Q 3097 2653 2873 2875 
Q 2650 3097 2266 3097 
Q 1838 3097 1509 2826 
Q 1181 2556 1013 2059 
L 3078 2063 
z
M 3578 1613 
L 903 1613 
Q 884 1494 878 1425 
Q 872 1356 872 1306 
Q 872 872 1139 634 
Q 1406 397 1894 397 
Q 2269 397 2603 481 
Q 2938 566 3225 728 
L 3116 159 
Q 2806 34 2476 -28 
Q 2147 -91 1806 -91 
Q 1078 -91 686 257 
Q 294 606 294 1247 
Q 294 1794 489 2264 
Q 684 2734 1063 3103 
Q 1306 3334 1642 3459 
Q 1978 3584 2356 3584 
Q 2950 3584 3301 3228 
Q 3653 2872 3653 2272 
Q 3653 2128 3634 1964 
Q 3616 1800 3578 1613 
z
" transform="scale(0.015625)"/>
       <path id="DejaVuSans-Oblique-72" d="M 2853 2969 
Q 2766 3016 2653 3041 
Q 2541 3066 2413 3066 
Q 1953 3066 1609 2717 
Q 1266 2369 1153 1784 
L 800 0 
L 225 0 
L 909 3500 
L 1484 3500 
L 1375 2956 
Q 1603 3259 1920 3421 
Q 2238 3584 2597 3584 
Q 2691 3584 2781 3573 
Q 2872 3563 2963 3538 
L 2853 2969 
z
" transform="scale(0.015625)"/>
       <path id="DejaVuSans-Oblique-6f" d="M 1625 -91 
Q 1009 -91 651 289 
Q 294 669 294 1325 
Q 294 1706 417 2101 
Q 541 2497 738 2766 
Q 1047 3184 1428 3384 
Q 1809 3584 2291 3584 
Q 2888 3584 3255 3212 
Q 3622 2841 3622 2241 
Q 3622 1825 3500 1412 
Q 3378 1000 3181 728 
Q 2875 309 2494 109 
Q 2113 -91 1625 -91 
z
M 891 1344 
Q 891 869 1089 633 
Q 1288 397 1691 397 
Q 2269 397 2648 901 
Q 3028 1406 3028 2181 
Q 3028 2634 2825 2865 
Q 2622 3097 2228 3097 
Q 1903 3097 1650 2945 
Q 1397 2794 1197 2484 
Q 1050 2253 970 1956 
Q 891 1659 891 1344 
z
" transform="scale(0.015625)"/>
       <path id="DejaVuSans-Oblique-66" d="M 3059 4863 
L 2969 4384 
L 2419 4384 
Q 2106 4384 1964 4261 
Q 1822 4138 1753 3809 
L 1691 3500 
L 2638 3500 
L 2553 3053 
L 1606 3053 
L 1013 0 
L 434 0 
L 1031 3053 
L 481 3053 
L 563 3500 
L 1113 3500 
L 1159 3744 
Q 1278 4363 1576 4613 
Q 1875 4863 2516 4863 
L 3059 4863 
z
" transform="scale(0.015625)"/>
       <path id="DejaVuSans-Oblique-41" d="M 2356 4666 
L 3072 4666 
L 3938 0 
L 3278 0 
L 3084 1197 
L 984 1197 
L 325 0 
L -341 0 
L 2356 4666 
z
M 2584 4044 
L 1275 1722 
L 2988 1722 
L 2584 4044 
z
" transform="scale(0.015625)"/>
       <path id="DejaVuSans-Oblique-63" d="M 3431 3366 
L 3316 2797 
Q 3109 2947 2876 3022 
Q 2644 3097 2394 3097 
Q 2119 3097 1870 3000 
Q 1622 2903 1453 2725 
Q 1184 2453 1037 2087 
Q 891 1722 891 1331 
Q 891 859 1127 628 
Q 1363 397 1844 397 
Q 2081 397 2348 469 
Q 2616 541 2906 684 
L 2797 116 
Q 2547 13 2283 -39 
Q 2019 -91 1741 -91 
Q 1044 -91 669 257 
Q 294 606 294 1253 
Q 294 1797 489 2255 
Q 684 2713 1069 3078 
Q 1331 3328 1684 3456 
Q 2038 3584 2456 3584 
Q 2700 3584 2940 3529 
Q 3181 3475 3431 3366 
z
" transform="scale(0.015625)"/>
       <path id="DejaVuSans-Oblique-73" d="M 3200 3397 
L 3091 2853 
Q 2863 2978 2609 3040 
Q 2356 3103 2088 3103 
Q 1634 3103 1373 2948 
Q 1113 2794 1113 2528 
Q 1113 2219 1719 2053 
Q 1766 2041 1788 2034 
L 1972 1978 
Q 2547 1819 2739 1644 
Q 2931 1469 2931 1166 
Q 2931 609 2489 259 
Q 2047 -91 1331 -91 
Q 1053 -91 747 -37 
Q 441 16 72 128 
L 184 722 
Q 500 559 806 475 
Q 1113 391 1394 391 
Q 1816 391 2080 572 
Q 2344 753 2344 1031 
Q 2344 1331 1650 1516 
L 1591 1531 
L 1394 1581 
Q 956 1697 753 1886 
Q 550 2075 550 2369 
Q 550 2928 970 3256 
Q 1391 3584 2113 3584 
Q 2397 3584 2667 3537 
Q 2938 3491 3200 3397 
z
" transform="scale(0.015625)"/>
       <path id="DejaVuSans-Oblique-74" d="M 2706 3500 
L 2619 3053 
L 1472 3053 
L 1100 1153 
Q 1081 1047 1072 975 
Q 1063 903 1063 863 
Q 1063 663 1183 572 
Q 1303 481 1569 481 
L 2150 481 
L 2053 0 
L 1503 0 
Q 991 0 739 200 
Q 488 400 488 806 
Q 488 878 497 964 
Q 506 1050 525 1153 
L 897 3053 
L 409 3053 
L 500 3500 
L 978 3500 
L 1172 4494 
L 1747 4494 
L 1556 3500 
L 2706 3500 
z
" transform="scale(0.015625)"/>
       <path id="DejaVuSans-Oblique-4f" d="M 2919 4238 
Q 2400 4238 2003 3986 
Q 1606 3734 1313 3219 
Q 1125 2891 1026 2522 
Q 928 2153 928 1778 
Q 928 1128 1239 775 
Q 1550 422 2119 422 
Q 2631 422 3032 676 
Q 3434 931 3719 1434 
Q 3909 1772 4009 2142 
Q 4109 2513 4109 2881 
Q 4109 3528 3796 3883 
Q 3484 4238 2919 4238 
z
M 2100 -91 
Q 1241 -91 748 418 
Q 256 928 256 1813 
Q 256 2319 448 2847 
Q 641 3375 978 3788 
Q 1375 4272 1862 4511 
Q 2350 4750 2938 4750 
Q 3794 4750 4287 4245 
Q 4781 3741 4781 2869 
Q 4781 2331 4593 1812 
Q 4406 1294 4056 872 
Q 3656 384 3173 146 
Q 2691 -91 2100 -91 
z
" transform="scale(0.015625)"/>
       <path id="DejaVuSans-Oblique-61" d="M 3438 1997 
L 3047 0 
L 2472 0 
L 2578 531 
Q 2325 219 2001 64 
Q 1678 -91 1281 -91 
Q 834 -91 548 182 
Q 263 456 263 884 
Q 263 1497 752 1853 
Q 1241 2209 2100 2209 
L 2900 2209 
L 2931 2363 
Q 2938 2388 2941 2417 
Q 2944 2447 2944 2509 
Q 2944 2788 2717 2942 
Q 2491 3097 2081 3097 
Q 1800 3097 1504 3025 
Q 1209 2953 897 2809 
L 997 3341 
Q 1322 3463 1633 3523 
Q 1944 3584 2234 3584 
Q 2853 3584 3176 3315 
Q 3500 3047 3500 2534 
Q 3500 2431 3484 2292 
Q 3469 2153 3438 1997 
z
M 2816 1759 
L 2241 1759 
Q 1534 1759 1195 1570 
Q 856 1381 856 984 
Q 856 709 1029 553 
Q 1203 397 1509 397 
Q 1978 397 2328 733 
Q 2678 1069 2791 1631 
L 2816 1759 
z
" transform="scale(0.015625)"/>
       <path id="DejaVuSans-Oblique-6c" d="M 1172 4863 
L 1747 4863 
L 800 0 
L 225 0 
L 1172 4863 
z
" transform="scale(0.015625)"/>
      </defs>
      <use xlink:href="#DejaVuSans-Oblique-4e" transform="translate(0 0.015625)"/>
      <use xlink:href="#DejaVuSans-Oblique-75" transform="translate(74.804688 0.015625)"/>
      <use xlink:href="#DejaVuSans-Oblique-6d" transform="translate(138.183594 0.015625)"/>
      <use xlink:href="#DejaVuSans-Oblique-62" transform="translate(235.595703 0.015625)"/>
      <use xlink:href="#DejaVuSans-Oblique-65" transform="translate(299.072266 0.015625)"/>
      <use xlink:href="#DejaVuSans-Oblique-72" transform="translate(360.595703 0.015625)"/>
      <use xlink:href="#DejaVuSans-Oblique-6f" transform="translate(434.179363 0.015625)"/>
      <use xlink:href="#DejaVuSans-Oblique-66" transform="translate(495.361003 0.015625)"/>
      <use xlink:href="#DejaVuSans-Oblique-41" transform="translate(563.03646 0.015625)"/>
      <use xlink:href="#DejaVuSans-Oblique-63" transform="translate(631.444663 0.015625)"/>
      <use xlink:href="#DejaVuSans-Oblique-63" transform="translate(686.425132 0.015625)"/>
      <use xlink:href="#DejaVuSans-Oblique-65" transform="translate(741.405601 0.015625)"/>
      <use xlink:href="#DejaVuSans-Oblique-73" transform="translate(802.929038 0.015625)"/>
      <use xlink:href="#DejaVuSans-Oblique-73" transform="translate(855.028647 0.015625)"/>
      <use xlink:href="#DejaVuSans-Oblique-65" transform="translate(907.128257 0.015625)"/>
      <use xlink:href="#DejaVuSans-Oblique-73" transform="translate(968.651694 0.015625)"/>
      <use xlink:href="#DejaVuSans-Oblique-74" transform="translate(1053.221682 0.015625)"/>
      <use xlink:href="#DejaVuSans-Oblique-6f" transform="translate(1092.430667 0.015625)"/>
      <use xlink:href="#DejaVuSans-Oblique-4f" transform="translate(1186.082686 0.015625)"/>
      <use xlink:href="#DejaVuSans-Oblique-72" transform="translate(1264.793623 0.015625)"/>
      <use xlink:href="#DejaVuSans-Oblique-61" transform="translate(1305.906904 0.015625)"/>
      <use xlink:href="#DejaVuSans-Oblique-63" transform="translate(1367.186201 0.015625)"/>
      <use xlink:href="#DejaVuSans-Oblique-6c" transform="translate(1422.16667 0.015625)"/>
      <use xlink:href="#DejaVuSans-Oblique-65" transform="translate(1449.949873 0.015625)"/>
     </g>
    </g>
   </g>
   <g id="matplotlib.axis_2">
    <g id="ytick_1">
     <g id="line2d_13">
      <defs>
       <path id="m622c1e005b" d="M 0 0 
L 3.5 0 
" style="stroke: #000000; stroke-width: 0.8"/>
      </defs>
      <g>
       <use xlink:href="#m622c1e005b" x="99.269375" y="1282.670869" style="stroke: #000000; stroke-width: 0.8"/>
      </g>
     </g>
     <g id="line2d_14">
      <defs>
       <path id="mc4b0e81663" d="M 0 0 
L -3.5 0 
" style="stroke: #000000; stroke-width: 0.8"/>
      </defs>
      <g>
       <use xlink:href="#mc4b0e81663" x="1438.469375" y="1282.670869" style="stroke: #000000; stroke-width: 0.8"/>
      </g>
     </g>
     <g id="text_8">
      <!-- 0.0 -->
      <g transform="translate(48.06 1294.068525)scale(0.3 -0.3)">
       <defs>
        <path id="DejaVuSans-2e" d="M 684 794 
L 1344 794 
L 1344 0 
L 684 0 
L 684 794 
z
" transform="scale(0.015625)"/>
       </defs>
       <use xlink:href="#DejaVuSans-30"/>
       <use xlink:href="#DejaVuSans-2e" x="63.623047"/>
       <use xlink:href="#DejaVuSans-30" x="95.410156"/>
      </g>
     </g>
    </g>
    <g id="ytick_2">
     <g id="line2d_15">
      <g>
       <use xlink:href="#m622c1e005b" x="99.269375" y="1124.661717" style="stroke: #000000; stroke-width: 0.8"/>
      </g>
     </g>
     <g id="line2d_16">
      <g>
       <use xlink:href="#mc4b0e81663" x="1438.469375" y="1124.661717" style="stroke: #000000; stroke-width: 0.8"/>
      </g>
     </g>
     <g id="text_9">
      <!-- 0.1 -->
      <g transform="translate(48.06 1136.059374)scale(0.3 -0.3)">
       <use xlink:href="#DejaVuSans-30"/>
       <use xlink:href="#DejaVuSans-2e" x="63.623047"/>
       <use xlink:href="#DejaVuSans-31" x="95.410156"/>
      </g>
     </g>
    </g>
    <g id="ytick_3">
     <g id="line2d_17">
      <g>
       <use xlink:href="#m622c1e005b" x="99.269375" y="966.652566" style="stroke: #000000; stroke-width: 0.8"/>
      </g>
     </g>
     <g id="line2d_18">
      <g>
       <use xlink:href="#mc4b0e81663" x="1438.469375" y="966.652566" style="stroke: #000000; stroke-width: 0.8"/>
      </g>
     </g>
     <g id="text_10">
      <!-- 0.2 -->
      <g transform="translate(48.06 978.050222)scale(0.3 -0.3)">
       <use xlink:href="#DejaVuSans-30"/>
       <use xlink:href="#DejaVuSans-2e" x="63.623047"/>
       <use xlink:href="#DejaVuSans-32" x="95.410156"/>
      </g>
     </g>
    </g>
    <g id="ytick_4">
     <g id="line2d_19">
      <g>
       <use xlink:href="#m622c1e005b" x="99.269375" y="808.643414" style="stroke: #000000; stroke-width: 0.8"/>
      </g>
     </g>
     <g id="line2d_20">
      <g>
       <use xlink:href="#mc4b0e81663" x="1438.469375" y="808.643414" style="stroke: #000000; stroke-width: 0.8"/>
      </g>
     </g>
     <g id="text_11">
      <!-- 0.3 -->
      <g transform="translate(48.06 820.04107)scale(0.3 -0.3)">
       <defs>
        <path id="DejaVuSans-33" d="M 2597 2516 
Q 3050 2419 3304 2112 
Q 3559 1806 3559 1356 
Q 3559 666 3084 287 
Q 2609 -91 1734 -91 
Q 1441 -91 1130 -33 
Q 819 25 488 141 
L 488 750 
Q 750 597 1062 519 
Q 1375 441 1716 441 
Q 2309 441 2620 675 
Q 2931 909 2931 1356 
Q 2931 1769 2642 2001 
Q 2353 2234 1838 2234 
L 1294 2234 
L 1294 2753 
L 1863 2753 
Q 2328 2753 2575 2939 
Q 2822 3125 2822 3475 
Q 2822 3834 2567 4026 
Q 2313 4219 1838 4219 
Q 1578 4219 1281 4162 
Q 984 4106 628 3988 
L 628 4550 
Q 988 4650 1302 4700 
Q 1616 4750 1894 4750 
Q 2613 4750 3031 4423 
Q 3450 4097 3450 3541 
Q 3450 3153 3228 2886 
Q 3006 2619 2597 2516 
z
" transform="scale(0.015625)"/>
       </defs>
       <use xlink:href="#DejaVuSans-30"/>
       <use xlink:href="#DejaVuSans-2e" x="63.623047"/>
       <use xlink:href="#DejaVuSans-33" x="95.410156"/>
      </g>
     </g>
    </g>
    <g id="ytick_5">
     <g id="line2d_21">
      <g>
       <use xlink:href="#m622c1e005b" x="99.269375" y="650.634263" style="stroke: #000000; stroke-width: 0.8"/>
      </g>
     </g>
     <g id="line2d_22">
      <g>
       <use xlink:href="#mc4b0e81663" x="1438.469375" y="650.634263" style="stroke: #000000; stroke-width: 0.8"/>
      </g>
     </g>
     <g id="text_12">
      <!-- 0.4 -->
      <g transform="translate(48.06 662.031919)scale(0.3 -0.3)">
       <use xlink:href="#DejaVuSans-30"/>
       <use xlink:href="#DejaVuSans-2e" x="63.623047"/>
       <use xlink:href="#DejaVuSans-34" x="95.410156"/>
      </g>
     </g>
    </g>
    <g id="ytick_6">
     <g id="line2d_23">
      <g>
       <use xlink:href="#m622c1e005b" x="99.269375" y="492.625111" style="stroke: #000000; stroke-width: 0.8"/>
      </g>
     </g>
     <g id="line2d_24">
      <g>
       <use xlink:href="#mc4b0e81663" x="1438.469375" y="492.625111" style="stroke: #000000; stroke-width: 0.8"/>
      </g>
     </g>
     <g id="text_13">
      <!-- 0.5 -->
      <g transform="translate(48.06 504.022767)scale(0.3 -0.3)">
       <defs>
        <path id="DejaVuSans-35" d="M 691 4666 
L 3169 4666 
L 3169 4134 
L 1269 4134 
L 1269 2991 
Q 1406 3038 1543 3061 
Q 1681 3084 1819 3084 
Q 2600 3084 3056 2656 
Q 3513 2228 3513 1497 
Q 3513 744 3044 326 
Q 2575 -91 1722 -91 
Q 1428 -91 1123 -41 
Q 819 9 494 109 
L 494 744 
Q 775 591 1075 516 
Q 1375 441 1709 441 
Q 2250 441 2565 725 
Q 2881 1009 2881 1497 
Q 2881 1984 2565 2268 
Q 2250 2553 1709 2553 
Q 1456 2553 1204 2497 
Q 953 2441 691 2322 
L 691 4666 
z
" transform="scale(0.015625)"/>
       </defs>
       <use xlink:href="#DejaVuSans-30"/>
       <use xlink:href="#DejaVuSans-2e" x="63.623047"/>
       <use xlink:href="#DejaVuSans-35" x="95.410156"/>
      </g>
     </g>
    </g>
    <g id="ytick_7">
     <g id="line2d_25">
      <g>
       <use xlink:href="#m622c1e005b" x="99.269375" y="334.615959" style="stroke: #000000; stroke-width: 0.8"/>
      </g>
     </g>
     <g id="line2d_26">
      <g>
       <use xlink:href="#mc4b0e81663" x="1438.469375" y="334.615959" style="stroke: #000000; stroke-width: 0.8"/>
      </g>
     </g>
     <g id="text_14">
      <!-- 0.6 -->
      <g transform="translate(48.06 346.013616)scale(0.3 -0.3)">
       <use xlink:href="#DejaVuSans-30"/>
       <use xlink:href="#DejaVuSans-2e" x="63.623047"/>
       <use xlink:href="#DejaVuSans-36" x="95.410156"/>
      </g>
     </g>
    </g>
    <g id="ytick_8">
     <g id="line2d_27">
      <g>
       <use xlink:href="#m622c1e005b" x="99.269375" y="176.606808" style="stroke: #000000; stroke-width: 0.8"/>
      </g>
     </g>
     <g id="line2d_28">
      <g>
       <use xlink:href="#mc4b0e81663" x="1438.469375" y="176.606808" style="stroke: #000000; stroke-width: 0.8"/>
      </g>
     </g>
     <g id="text_15">
      <!-- 0.7 -->
      <g transform="translate(48.06 188.004464)scale(0.3 -0.3)">
       <defs>
        <path id="DejaVuSans-37" d="M 525 4666 
L 3525 4666 
L 3525 4397 
L 1831 0 
L 1172 0 
L 2766 4134 
L 525 4134 
L 525 4666 
z
" transform="scale(0.015625)"/>
       </defs>
       <use xlink:href="#DejaVuSans-30"/>
       <use xlink:href="#DejaVuSans-2e" x="63.623047"/>
       <use xlink:href="#DejaVuSans-37" x="95.410156"/>
      </g>
     </g>
    </g>
    <g id="ytick_9">
     <g id="line2d_29">
      <g>
       <use xlink:href="#m622c1e005b" x="99.269375" y="18.597656" style="stroke: #000000; stroke-width: 0.8"/>
      </g>
     </g>
     <g id="line2d_30">
      <g>
       <use xlink:href="#mc4b0e81663" x="1438.469375" y="18.597656" style="stroke: #000000; stroke-width: 0.8"/>
      </g>
     </g>
     <g id="text_16">
      <!-- 0.8 -->
      <g transform="translate(48.06 29.995312)scale(0.3 -0.3)">
       <use xlink:href="#DejaVuSans-30"/>
       <use xlink:href="#DejaVuSans-2e" x="63.623047"/>
       <use xlink:href="#DejaVuSans-38" x="95.410156"/>
      </g>
     </g>
    </g>
    <g id="text_17">
     <!-- $Posibility$ -->
     <g transform="translate(36.08 761.845593)rotate(-90)scale(0.38 -0.38)">
      <defs>
       <path id="DejaVuSans-Oblique-50" d="M 1081 4666 
L 2541 4666 
Q 3178 4666 3512 4369 
Q 3847 4072 3847 3500 
Q 3847 2731 3353 2303 
Q 2859 1875 1966 1875 
L 1172 1875 
L 806 0 
L 172 0 
L 1081 4666 
z
M 1613 4147 
L 1275 2394 
L 2069 2394 
Q 2606 2394 2893 2669 
Q 3181 2944 3181 3456 
Q 3181 3784 2986 3965 
Q 2791 4147 2438 4147 
L 1613 4147 
z
" transform="scale(0.015625)"/>
       <path id="DejaVuSans-Oblique-69" d="M 1172 4863 
L 1747 4863 
L 1606 4134 
L 1031 4134 
L 1172 4863 
z
M 909 3500 
L 1484 3500 
L 800 0 
L 225 0 
L 909 3500 
z
" transform="scale(0.015625)"/>
       <path id="DejaVuSans-Oblique-79" d="M 1588 -325 
Q 1188 -997 936 -1164 
Q 684 -1331 294 -1331 
L -159 -1331 
L -63 -850 
L 269 -850 
Q 509 -850 678 -719 
Q 847 -588 1056 -206 
L 1234 128 
L 459 3500 
L 1069 3500 
L 1650 819 
L 3256 3500 
L 3859 3500 
L 1588 -325 
z
" transform="scale(0.015625)"/>
      </defs>
      <use xlink:href="#DejaVuSans-Oblique-50" transform="translate(0 0.015625)"/>
      <use xlink:href="#DejaVuSans-Oblique-6f" transform="translate(60.302734 0.015625)"/>
      <use xlink:href="#DejaVuSans-Oblique-73" transform="translate(121.484375 0.015625)"/>
      <use xlink:href="#DejaVuSans-Oblique-69" transform="translate(173.583984 0.015625)"/>
      <use xlink:href="#DejaVuSans-Oblique-62" transform="translate(201.367188 0.015625)"/>
      <use xlink:href="#DejaVuSans-Oblique-69" transform="translate(264.84375 0.015625)"/>
      <use xlink:href="#DejaVuSans-Oblique-6c" transform="translate(292.626953 0.015625)"/>
      <use xlink:href="#DejaVuSans-Oblique-69" transform="translate(320.410156 0.015625)"/>
      <use xlink:href="#DejaVuSans-Oblique-74" transform="translate(348.193359 0.015625)"/>
      <use xlink:href="#DejaVuSans-Oblique-79" transform="translate(387.402344 0.015625)"/>
     </g>
    </g>
   </g>
   <g id="line2d_31">
    <path d="M 160.142102 1225.908483 
L 172.439623 1184.359534 
L 184.737144 1115.143799 
L 197.034664 1060.552269 
L 209.332185 987.780285 
L 221.629706 925.993935 
L 233.927226 848.345915 
L 246.224747 778.446491 
L 258.522268 698.640556 
L 270.819788 628.65165 
L 283.117309 552.905476 
L 295.41483 484.819886 
L 307.71235 416.874655 
L 320.009871 358.911652 
L 332.307392 304.286593 
L 344.604912 257.581963 
L 356.902433 219.309524 
L 369.199954 192.191108 
L 381.497474 173.757571 
L 393.794995 167.408289 
L 406.092515 174.109252 
L 418.390036 192.104646 
L 430.687557 230.980601 
L 442.985077 265.953794 
L 455.282598 292.999319 
L 467.580119 309.633622 
L 479.877639 314.940423 
L 492.17516 309.39939 
L 504.472681 294.672715 
L 516.770201 273.364976 
L 529.067722 248.682256 
L 541.365243 223.941436 
L 553.662763 202.009829 
L 565.960284 184.842371 
L 578.257805 173.275374 
L 590.555325 167.125453 
L 602.852846 171.005794 
L 615.150367 188.165351 
L 627.447887 213.635984 
L 639.745408 257.869319 
L 652.042929 306.53432 
L 664.340449 335.02326 
L 676.63797 358.113943 
L 688.935491 371.223899 
L 701.233011 372.513333 
L 713.530532 362.07735 
L 725.828053 341.277799 
L 738.125573 312.836231 
L 750.423094 281.282656 
L 762.720615 252.848436 
L 775.018135 204.947424 
L 787.315656 177.662973 
L 799.613177 162.980652 
L 811.910697 138.657434 
L 824.208218 158.334061 
L 836.505739 188.718573 
L 848.803259 225.599773 
L 861.10078 264.191486 
L 873.398301 299.742471 
L 885.695821 328.026851 
L 897.993342 345.915826 
L 910.290863 352.010555 
L 922.588383 347.050806 
L 934.885904 333.738061 
L 947.183425 315.867921 
L 959.480945 297.098061 
L 971.778466 279.914297 
L 984.075987 265.253845 
L 996.373507 252.823391 
L 1008.671028 241.769482 
L 1020.968549 231.260688 
L 1033.266069 220.748703 
L 1045.56359 209.996464 
L 1057.861111 199.089851 
L 1070.158631 188.567405 
L 1082.456152 215.962526 
L 1094.753673 235.72628 
L 1107.051193 256.726612 
L 1119.348714 277.013913 
L 1131.646235 295.013367 
L 1143.943755 334.714715 
L 1156.241276 340.406157 
L 1168.538796 338.113508 
L 1180.836317 327.65888 
L 1193.133838 310.152556 
L 1205.431358 287.974391 
L 1217.728879 264.907631 
L 1230.0264 245.921441 
L 1242.32392 218.620319 
L 1254.621441 204.03124 
L 1266.918962 202.619649 
L 1279.216482 212.598575 
L 1291.514003 230.830192 
L 1303.811524 254.002914 
L 1316.109044 279.476454 
L 1328.406565 311.174796 
L 1340.704086 337.04851 
L 1353.001606 359.833209 
L 1365.299127 377.665964 
L 1377.596648 389.056006 
" clip-path="url(#pe239c73579)" style="fill: none; stroke-dasharray: 11.1,4.8; stroke-dashoffset: 0; stroke: #ff0000; stroke-width: 3"/>
   </g>
   <g id="line2d_32">
    <path d="M 160.142102 1267.841062 
L 172.439623 1256.44037 
L 184.737144 1235.453911 
L 197.034664 1216.564517 
L 209.332185 1189.548397 
L 221.629706 1164.313845 
L 233.927226 1131.542558 
L 246.224747 1100.468351 
L 258.522268 1062.637832 
L 270.819788 1026.642099 
L 283.117309 984.512466 
L 295.41483 944.149961 
L 307.71235 898.491305 
L 320.009871 854.820419 
L 332.307392 806.525175 
L 344.604912 760.093807 
L 356.902433 709.987509 
L 369.199954 660.445256 
L 381.497474 615.990456 
L 393.794995 580.157251 
L 406.092515 540.217957 
L 418.390036 506.231785 
L 430.687557 464.244297 
L 442.985077 422.078417 
L 455.282598 382.809082 
L 467.580119 354.188853 
L 479.877639 319.325193 
L 492.17516 291.933374 
L 504.472681 257.870914 
L 516.770201 233.32552 
L 529.067722 202.755553 
L 541.365243 179.922456 
L 553.662763 155.30256 
L 565.960284 138.113345 
L 578.257805 119.818161 
L 590.555325 104.985352 
L 602.852846 94.692699 
L 615.150367 89.64753 
L 627.447887 90.107226 
L 639.745408 94.703159 
L 652.042929 100.042652 
L 664.340449 105.761967 
L 676.63797 111.511225 
L 688.935491 116.985957 
L 701.233011 121.935436 
L 713.530532 126.17697 
L 725.828053 129.591122 
L 738.125573 132.124482 
L 750.423094 133.784795 
L 762.720615 134.639672 
L 775.018135 134.80901 
L 787.315656 134.45763 
L 799.613177 133.77236 
L 811.910697 132.946019 
L 824.208218 140.085679 
L 836.505739 145.772886 
L 848.803259 151.894919 
L 861.10078 158.206247 
L 873.398301 164.532855 
L 885.695821 173.281869 
L 897.993342 175.245259 
L 910.290863 175.90885 
L 922.588383 174.868628 
L 934.885904 171.861335 
L 947.183425 166.793855 
L 959.480945 159.754674 
L 971.778466 151.015266 
L 984.075987 141.013177 
L 996.373507 130.326954 
L 1008.671028 119.629134 
L 1020.968549 109.630062 
L 1033.266069 101.0112 
L 1045.56359 94.355444 
L 1057.861111 91.999702 
L 1070.158631 92.689001 
L 1082.456152 93.1827 
L 1094.753673 95.316092 
L 1107.051193 98.839396 
L 1119.348714 103.40161 
L 1131.646235 108.590489 
L 1143.943755 113.959371 
L 1156.241276 119.068202 
L 1168.538796 123.512114 
L 1180.836317 126.963666 
L 1193.133838 129.200555 
L 1205.431358 130.135763 
L 1217.728879 129.828546 
L 1230.0264 128.482798 
L 1242.32392 126.421837 
L 1254.621441 124.046407 
L 1266.918962 121.779007 
L 1279.216482 121.078584 
L 1291.514003 120.629348 
L 1303.811524 121.947587 
L 1316.109044 133.073169 
L 1328.406565 146.577184 
L 1340.704086 158.618572 
L 1353.001606 168.458118 
L 1365.299127 175.529217 
L 1377.596648 179.465873 
" clip-path="url(#pe239c73579)" style="fill: none; stroke-dasharray: 11.1,4.8; stroke-dashoffset: 0; stroke: #da70d6; stroke-width: 3"/>
   </g>
   <g id="line2d_33">
    <path d="M 160.142102 1278.886976 
L 172.439623 1275.916246 
L 184.737144 1270.205258 
L 197.034664 1264.772698 
L 209.332185 1256.796712 
L 221.629706 1249.069512 
L 233.927226 1238.88993 
L 246.224747 1228.975567 
L 258.522268 1216.701305 
L 270.819788 1204.700384 
L 283.117309 1190.413038 
L 295.41483 1176.410678 
L 307.71235 1160.209668 
L 320.009871 1144.311024 
L 332.307392 1126.287695 
L 344.604912 1108.569955 
L 356.902433 1088.823267 
L 369.199954 1067.898636 
L 381.497474 1046.76123 
L 393.794995 1029.484857 
L 406.092515 1007.94377 
L 418.390036 989.844248 
L 430.687557 966.492076 
L 442.985077 946.942915 
L 455.282598 922.190797 
L 467.580119 901.137121 
L 479.877639 875.447487 
L 492.17516 853.418167 
L 504.472681 826.773147 
L 516.770201 803.748686 
L 529.067722 776.564854 
L 541.365243 752.838737 
L 553.662763 724.957691 
L 565.960284 700.540331 
L 578.257805 672.498178 
L 590.555325 644.623168 
L 602.852846 617.979601 
L 615.150367 596.300319 
L 627.447887 570.516259 
L 639.745408 549.245431 
L 652.042929 523.01212 
L 664.340449 501.50453 
L 676.63797 475.221067 
L 688.935491 453.429424 
L 701.233011 427.751783 
L 713.530532 406.448832 
L 725.828053 381.452969 
L 738.125573 360.585143 
L 750.423094 336.694396 
L 762.720615 316.687009 
L 775.018135 293.861449 
L 787.315656 274.690752 
L 799.613177 253.384039 
L 811.910697 233.374392 
L 824.208218 215.384924 
L 836.505739 200.978835 
L 848.803259 185.215241 
L 861.10078 172.508082 
L 873.398301 158.136944 
L 885.695821 146.775912 
L 897.993342 134.040975 
L 910.290863 122.333161 
L 922.588383 112.056625 
L 934.885904 104.426189 
L 947.183425 96.847375 
L 959.480945 91.305583 
L 971.778466 85.401682 
L 984.075987 80.408024 
L 996.373507 76.486521 
L 1008.671028 73.759141 
L 1020.968549 72.543829 
L 1033.266069 72.115593 
L 1045.56359 72.879109 
L 1057.861111 75.009199 
L 1070.158631 77.6717 
L 1082.456152 80.789553 
L 1094.753673 84.28007 
L 1107.051193 88.054561 
L 1119.348714 92.02296 
L 1131.646235 96.091854 
L 1143.943755 100.165741 
L 1156.241276 104.150716 
L 1168.538796 107.955529 
L 1180.836317 111.492485 
L 1193.133838 114.685218 
L 1205.431358 117.467885 
L 1217.728879 119.793021 
L 1230.0264 121.6319 
L 1242.32392 122.978676 
L 1254.621441 123.84948 
L 1266.918962 124.282709 
L 1279.216482 124.335358 
L 1291.514003 124.081358 
L 1303.811524 123.602543 
L 1316.109044 122.98735 
L 1328.406565 122.31913 
L 1340.704086 121.677107 
L 1353.001606 121.12398 
L 1365.299127 120.707894 
L 1377.596648 120.458035 
" clip-path="url(#pe239c73579)" style="fill: none; stroke-dasharray: 11.1,4.8; stroke-dashoffset: 0; stroke: #808080; stroke-width: 3"/>
   </g>
   <g id="line2d_34">
    <path d="M 160.142102 1281.715593 
L 172.439623 1280.238365 
L 184.737144 1279.496133 
L 197.034664 1277.359597 
L 209.332185 1275.979924 
L 221.629706 1273.214337 
L 233.927226 1269.842848 
L 246.224747 1265.967958 
L 258.522268 1264.038461 
L 270.819788 1259.701284 
L 283.117309 1257.246865 
L 295.41483 1252.29353 
L 307.71235 1246.796977 
L 320.009871 1240.868979 
L 332.307392 1234.652109 
L 344.604912 1228.313066 
L 356.902433 1222.033703 
L 369.199954 1216.001056 
L 381.497474 1213.690836 
L 393.794995 1207.712038 
L 406.092515 1205.238547 
L 418.390036 1198.618959 
L 430.687557 1191.511913 
L 442.985077 1184.007347 
L 455.282598 1176.21669 
L 467.580119 1168.270774 
L 479.877639 1165.445491 
L 492.17516 1157.285156 
L 504.472681 1154.088236 
L 516.770201 1145.384523 
L 529.067722 1136.287004 
L 541.365243 1126.937191 
L 553.662763 1117.495844 
L 565.960284 1108.138748 
L 578.257805 1099.050409 
L 590.555325 1090.416489 
L 602.852846 1087.440544 
L 615.150367 1078.886087 
L 627.447887 1075.765817 
L 639.745408 1066.614338 
L 652.042929 1057.013054 
L 664.340449 1047.096447 
L 676.63797 1037.016095 
L 688.935491 1026.937718 
L 701.233011 1023.5987 
L 713.530532 1013.324203 
L 725.828053 1009.644422 
L 738.125573 998.941056 
L 750.423094 987.929809 
L 762.720615 976.784697 
L 775.018135 965.693656 
L 787.315656 954.853074 
L 799.613177 944.461618 
L 811.910697 934.71397 
L 824.208218 931.445219 
L 836.505739 921.788379 
L 848.803259 918.416875 
L 861.10078 908.296405 
L 873.398301 897.783993 
L 885.695821 887.034267 
L 897.993342 876.213594 
L 910.290863 865.498978 
L 922.588383 862.053415 
L 934.885904 851.127034 
L 947.183425 847.366764 
L 959.480945 836.211097 
L 971.778466 824.862216 
L 984.075987 813.503697 
L 996.373507 802.325181 
L 1008.671028 791.520531 
L 1020.968549 781.279595 
L 1033.266069 771.784651 
L 1045.56359 768.632289 
L 1057.861111 759.215339 
L 1070.158631 755.984083 
L 1082.456152 746.31168 
L 1094.753673 736.364055 
L 1107.051193 726.291715 
L 1119.348714 723.118196 
L 1131.646235 712.691251 
L 1143.943755 702.133537 
L 1156.241276 691.614442 
L 1168.538796 688.195582 
L 1180.836317 677.945828 
L 1193.133838 674.610097 
L 1205.431358 663.924475 
L 1217.728879 653.08568 
L 1230.0264 642.263886 
L 1242.32392 631.63431 
L 1254.621441 621.370304 
L 1266.918962 618.121968 
L 1279.216482 608.489998 
L 1291.514003 605.290108 
L 1303.811524 595.194113 
L 1316.109044 584.944375 
L 1328.406565 574.700468 
L 1340.704086 564.627085 
L 1353.001606 554.88827 
L 1365.299127 551.718843 
L 1377.596648 542.574885 
" clip-path="url(#pe239c73579)" style="fill: none; stroke-dasharray: 11.1,4.8; stroke-dashoffset: 0; stroke: #cd853f; stroke-width: 3"/>
   </g>
   <g id="patch_3">
    <path d="M 99.269375 1342.195593 
L 99.269375 11.635593 
" style="fill: none; stroke: #000000; stroke-width: 0.8; stroke-linejoin: miter; stroke-linecap: square"/>
   </g>
   <g id="patch_4">
    <path d="M 1438.469375 1342.195593 
L 1438.469375 11.635593 
" style="fill: none; stroke: #000000; stroke-width: 0.8; stroke-linejoin: miter; stroke-linecap: square"/>
   </g>
   <g id="patch_5">
    <path d="M 99.269375 1342.195593 
L 1438.469375 1342.195593 
" style="fill: none; stroke: #000000; stroke-width: 0.8; stroke-linejoin: miter; stroke-linecap: square"/>
   </g>
   <g id="patch_6">
    <path d="M 99.269375 11.635593 
L 1438.469375 11.635593 
" style="fill: none; stroke: #000000; stroke-width: 0.8; stroke-linejoin: miter; stroke-linecap: square"/>
   </g>
   <g id="legend_1">
    <g id="patch_7">
     <path d="M 1176.299375 191.759343 
L 1419.569375 191.759343 
Q 1424.969375 191.759343 1424.969375 186.359343 
L 1424.969375 30.535593 
Q 1424.969375 25.135593 1419.569375 25.135593 
L 1176.299375 25.135593 
Q 1170.899375 25.135593 1170.899375 30.535593 
L 1170.899375 186.359343 
Q 1170.899375 191.759343 1176.299375 191.759343 
z
" style="fill: #ffffff; opacity: 0.83; stroke: #cccccc; stroke-linejoin: miter"/>
    </g>
    <g id="line2d_35">
     <path d="M 1181.699375 47.001374 
L 1208.699375 47.001374 
L 1235.699375 47.001374 
" style="fill: none; stroke-dasharray: 11.1,4.8; stroke-dashoffset: 0; stroke: #ff0000; stroke-width: 3"/>
    </g>
    <g id="text_18">
     <!-- $N\ =\ 256$ -->
     <g transform="translate(1257.299375 56.451374)scale(0.27 -0.27)">
      <defs>
       <path id="DejaVuSans-3d" d="M 678 2906 
L 4684 2906 
L 4684 2381 
L 678 2381 
L 678 2906 
z
M 678 1631 
L 4684 1631 
L 4684 1100 
L 678 1100 
L 678 1631 
z
" transform="scale(0.015625)"/>
      </defs>
      <use xlink:href="#DejaVuSans-Oblique-4e" transform="translate(0 0.78125)"/>
      <use xlink:href="#DejaVuSans-3d" transform="translate(126.757488 0.78125)"/>
      <use xlink:href="#DejaVuSans-32" transform="translate(262.499351 0.78125)"/>
      <use xlink:href="#DejaVuSans-35" transform="translate(326.122397 0.78125)"/>
      <use xlink:href="#DejaVuSans-36" transform="translate(389.745444 0.78125)"/>
     </g>
    </g>
    <g id="line2d_36">
     <path d="M 1181.699375 86.632312 
L 1208.699375 86.632312 
L 1235.699375 86.632312 
" style="fill: none; stroke-dasharray: 11.1,4.8; stroke-dashoffset: 0; stroke: #da70d6; stroke-width: 3"/>
    </g>
    <g id="text_19">
     <!-- $N\ =\ 1024$ -->
     <g transform="translate(1257.299375 96.082312)scale(0.27 -0.27)">
      <use xlink:href="#DejaVuSans-Oblique-4e" transform="translate(0 0.78125)"/>
      <use xlink:href="#DejaVuSans-3d" transform="translate(126.757488 0.78125)"/>
      <use xlink:href="#DejaVuSans-31" transform="translate(262.499351 0.78125)"/>
      <use xlink:href="#DejaVuSans-30" transform="translate(326.122397 0.78125)"/>
      <use xlink:href="#DejaVuSans-32" transform="translate(389.745444 0.78125)"/>
      <use xlink:href="#DejaVuSans-34" transform="translate(453.368491 0.78125)"/>
     </g>
    </g>
    <g id="line2d_37">
     <path d="M 1181.699375 126.263249 
L 1208.699375 126.263249 
L 1235.699375 126.263249 
" style="fill: none; stroke-dasharray: 11.1,4.8; stroke-dashoffset: 0; stroke: #808080; stroke-width: 3"/>
    </g>
    <g id="text_20">
     <!-- $N\ =\ 4096$ -->
     <g transform="translate(1257.299375 135.713249)scale(0.27 -0.27)">
      <defs>
       <path id="DejaVuSans-39" d="M 703 97 
L 703 672 
Q 941 559 1184 500 
Q 1428 441 1663 441 
Q 2288 441 2617 861 
Q 2947 1281 2994 2138 
Q 2813 1869 2534 1725 
Q 2256 1581 1919 1581 
Q 1219 1581 811 2004 
Q 403 2428 403 3163 
Q 403 3881 828 4315 
Q 1253 4750 1959 4750 
Q 2769 4750 3195 4129 
Q 3622 3509 3622 2328 
Q 3622 1225 3098 567 
Q 2575 -91 1691 -91 
Q 1453 -91 1209 -44 
Q 966 3 703 97 
z
M 1959 2075 
Q 2384 2075 2632 2365 
Q 2881 2656 2881 3163 
Q 2881 3666 2632 3958 
Q 2384 4250 1959 4250 
Q 1534 4250 1286 3958 
Q 1038 3666 1038 3163 
Q 1038 2656 1286 2365 
Q 1534 2075 1959 2075 
z
" transform="scale(0.015625)"/>
      </defs>
      <use xlink:href="#DejaVuSans-Oblique-4e" transform="translate(0 0.78125)"/>
      <use xlink:href="#DejaVuSans-3d" transform="translate(126.757488 0.78125)"/>
      <use xlink:href="#DejaVuSans-34" transform="translate(262.499351 0.78125)"/>
      <use xlink:href="#DejaVuSans-30" transform="translate(326.122397 0.78125)"/>
      <use xlink:href="#DejaVuSans-39" transform="translate(389.745444 0.78125)"/>
      <use xlink:href="#DejaVuSans-36" transform="translate(453.368491 0.78125)"/>
     </g>
    </g>
    <g id="line2d_38">
     <path d="M 1181.699375 165.894187 
L 1208.699375 165.894187 
L 1235.699375 165.894187 
" style="fill: none; stroke-dasharray: 11.1,4.8; stroke-dashoffset: 0; stroke: #cd853f; stroke-width: 3"/>
    </g>
    <g id="text_21">
     <!-- $N\ =\ 16384$ -->
     <g transform="translate(1257.299375 175.344187)scale(0.27 -0.27)">
      <use xlink:href="#DejaVuSans-Oblique-4e" transform="translate(0 0.78125)"/>
      <use xlink:href="#DejaVuSans-3d" transform="translate(126.757488 0.78125)"/>
      <use xlink:href="#DejaVuSans-31" transform="translate(262.499351 0.78125)"/>
      <use xlink:href="#DejaVuSans-36" transform="translate(326.122397 0.78125)"/>
      <use xlink:href="#DejaVuSans-33" transform="translate(389.745444 0.78125)"/>
      <use xlink:href="#DejaVuSans-38" transform="translate(453.368491 0.78125)"/>
      <use xlink:href="#DejaVuSans-34" transform="translate(516.991538 0.78125)"/>
     </g>
    </g>
   </g>
  </g>
 </g>
 <defs>
  <clipPath id="pe239c73579">
   <rect x="99.269375" y="11.635593" width="1339.2" height="1330.56"/>
  </clipPath>
 </defs>
</svg>
